<?xml version="1.0" encoding="utf-8"?>
<!-- Generator: Adobe Illustrator 18.1.1, SVG Export Plug-In . SVG Version: 6.00 Build 0)  -->
<svg version="1.1" xmlns="http://www.w3.org/2000/svg" xmlns:xlink="http://www.w3.org/1999/xlink" x="0px" y="0px"
	 viewBox="0 0 24 24" enable-background="new 0 0 24 24" xml:space="preserve">
<g id="bounds" display="none">
	<rect display="inline" fill="none" width="24" height="24"/>
</g>
<g id="Layer_2">
	<g>
		<path d="M8.867,12.378H6.853v2.316H8.83c0.181,0,0.355-0.017,0.518-0.053c0.166-0.035,0.313-0.094,0.437-0.178
			c0.123-0.082,0.227-0.194,0.301-0.336c0.075-0.141,0.111-0.324,0.111-0.545c0-0.434-0.122-0.741-0.365-0.928
			C9.589,12.47,9.266,12.378,8.867,12.378z"/>
		<path d="M15.984,11.128c-0.267,0-0.488,0.045-0.665,0.136c-0.173,0.091-0.315,0.203-0.424,0.336
			c-0.108,0.135-0.181,0.277-0.225,0.429c-0.042,0.149-0.069,0.283-0.075,0.402h2.722c-0.041-0.427-0.186-0.742-0.386-0.964
			C16.731,11.246,16.395,11.128,15.984,11.128z"/>
		<path d="M9.542,10.878c0.213-0.156,0.317-0.413,0.317-0.765c0-0.196-0.035-0.357-0.104-0.483C9.683,9.504,9.589,9.407,9.471,9.337
			C9.352,9.265,9.218,9.217,9.062,9.19C8.909,9.16,8.75,9.148,8.586,9.148H6.853v1.966h1.874
			C9.055,11.114,9.327,11.036,9.542,10.878z"/>
		<path d="M3,3v18h18V3H3z M14.252,8.192h3.409v0.83h-3.409V8.192z M11.799,14.788c-0.164,0.313-0.388,0.567-0.665,0.762
			c-0.279,0.197-0.599,0.342-0.957,0.436c-0.355,0.094-0.722,0.142-1.099,0.142H5V7.715h3.966c0.403,0,0.766,0.035,1.098,0.107
			c0.33,0.07,0.612,0.187,0.849,0.347c0.235,0.16,0.418,0.373,0.55,0.641c0.128,0.265,0.192,0.596,0.192,0.987
			c0,0.423-0.096,0.777-0.288,1.06c-0.193,0.282-0.478,0.513-0.859,0.693c0.518,0.149,0.901,0.411,1.156,0.783
			c0.255,0.375,0.381,0.824,0.381,1.351C12.045,14.112,11.963,14.479,11.799,14.788z M15.007,14.667
			c0.251,0.244,0.613,0.368,1.083,0.368c0.336,0,0.628-0.086,0.873-0.256c0.243-0.17,0.39-0.352,0.448-0.54h1.474
			c-0.238,0.733-0.597,1.256-1.087,1.571c-0.483,0.317-1.075,0.474-1.763,0.474c-0.479,0-0.912-0.077-1.299-0.23
			c-0.387-0.155-0.712-0.372-0.983-0.655c-0.265-0.284-0.471-0.62-0.619-1.015c-0.145-0.392-0.219-0.827-0.219-1.298
			c0-0.456,0.076-0.881,0.225-1.275c0.152-0.394,0.362-0.735,0.637-1.021c0.278-0.287,0.605-0.514,0.988-0.679
			c0.382-0.165,0.803-0.248,1.27-0.248c0.515,0,0.967,0.099,1.354,0.302c0.386,0.199,0.702,0.469,0.95,0.807
			c0.248,0.338,0.425,0.724,0.535,1.157c0.11,0.432,0.149,0.883,0.117,1.356h-4.395C14.594,13.967,14.756,14.422,15.007,14.667z"/>
	</g>
</g>
</svg>
