<?xml version="1.0" encoding="utf-8"?>
<!-- Generator: Adobe Illustrator 18.1.1, SVG Export Plug-In . SVG Version: 6.00 Build 0)  -->
<svg version="1.1" xmlns="http://www.w3.org/2000/svg" xmlns:xlink="http://www.w3.org/1999/xlink" x="0px" y="0px"
	 viewBox="0 0 24 24" enable-background="new 0 0 24 24" xml:space="preserve">
<g id="bounds" display="none">
	<rect display="inline" fill="none" width="24" height="24"/>
</g>
<g id="Layer_2">
	<path d="M7,8.5C7,7.672,7.672,7,8.5,7S10,7.672,10,8.5S9.328,10,8.5,10S7,9.328,7,8.5z M16,18H4c-1.105,0-2-0.895-2-2V4
		c0-1.105,0.895-2,2-2h12c1.105,0,2,0.895,2,2v12C18,17.105,17.105,18,16,18z M4,4v11.111l2.444-2.445l2.222,2.222l4-4L16,14.222V4
		H4z M20,6v14H6v2h14c1.105,0,2-0.895,2-2V6H20z"/>
</g>
</svg>
