<?xml version="1.0" encoding="utf-8"?>
<!-- Generator: Adobe Illustrator 18.1.1, SVG Export Plug-In . SVG Version: 6.00 Build 0)  -->
<svg version="1.1" xmlns="http://www.w3.org/2000/svg" xmlns:xlink="http://www.w3.org/1999/xlink" x="0px" y="0px"
	 viewBox="0 0 24 24" enable-background="new 0 0 24 24" xml:space="preserve">
<g id="bounds" display="none">
	<rect display="inline" fill="none" width="24" height="24"/>
</g>
<g id="Layer_2">
	<path d="M16.5,8v8.5c0,2.206-1.794,4-4,4s-4-1.794-4-4V6c0-1.379,1.121-2.5,2.5-2.5s2.5,1.121,2.5,2.5v8.5c0,0.552-0.448,1-1,1
		s-1-0.448-1-1V8H10v6.5c0,1.379,1.121,2.5,2.5,2.5s2.5-1.121,2.5-2.5V6c0-2.206-1.794-4-4-4S7,3.794,7,6v10.5
		c0,3.032,2.468,5.5,5.5,5.5s5.5-2.468,5.5-5.5V8H16.5z"/>
</g>
</svg>
