<?xml version="1.0" encoding="utf-8"?>
<!-- Generator: Adobe Illustrator 18.1.1, SVG Export Plug-In . SVG Version: 6.00 Build 0)  -->
<svg version="1.1" xmlns="http://www.w3.org/2000/svg" xmlns:xlink="http://www.w3.org/1999/xlink" x="0px" y="0px"
	 viewBox="0 0 24 24" enable-background="new 0 0 24 24" xml:space="preserve">
<g id="bounds" display="none">
	<rect display="inline" fill="none" width="24" height="24"/>
</g>
<g id="Layer_2">
	<path d="M8,10c0-1.105,0.895-2,2-2s2,0.895,2,2c0,1.105-0.895,2-2,2S8,11.105,8,10z M21,5v14c0,1.105-0.895,2-2,2H5
		c-1.105,0-2-0.895-2-2V5c0-1.105,0.895-2,2-2h14C20.105,3,21,3.895,21,5z M5,5v13l3-3l2.5,2.5L15,13l4,4V5H5z"/>
</g>
</svg>
