<?xml version="1.0" encoding="utf-8"?>
<!-- Generator: Adobe Illustrator 18.1.1, SVG Export Plug-In . SVG Version: 6.00 Build 0)  -->
<svg version="1.1" xmlns="http://www.w3.org/2000/svg" xmlns:xlink="http://www.w3.org/1999/xlink" x="0px" y="0px"
	 viewBox="0 0 24 24" enable-background="new 0 0 24 24" xml:space="preserve">
<g id="bounds" display="none">
	<rect display="inline" fill="none" width="24" height="24"/>
</g>
<g id="Layer_2">
	<path d="M15.5,13c0,1.93-1.57,3.5-3.5,3.5S8.5,14.93,8.5,13s1.57-3.5,3.5-3.5S15.5,11.07,15.5,13z M22,8v10c0,1.105-0.895,2-2,2H4
		c-1.105,0-2-0.895-2-2V8c0-1.105,0.895-2,2-2h3l1.707-1.707C8.895,4.105,9.149,4,9.414,4h5.172c0.265,0,0.52,0.105,0.707,0.293
		L17,6h3C21.105,6,22,6.895,22,8z M17,13c0-2.761-2.239-5-5-5s-5,2.239-5,5s2.239,5,5,5S17,15.761,17,13z"/>
</g>
</svg>
