<?xml version="1.0" encoding="utf-8"?>
<!-- Generator: Adobe Illustrator 18.1.1, SVG Export Plug-In . SVG Version: 6.00 Build 0)  -->
<svg version="1.1" xmlns="http://www.w3.org/2000/svg" xmlns:xlink="http://www.w3.org/1999/xlink" x="0px" y="0px"
	 viewBox="0 0 24 24" enable-background="new 0 0 24 24" xml:space="preserve">
<g id="bounds" display="none">
	<rect display="inline" fill="none" width="24" height="24"/>
</g>
<g id="Layer_2">
	<g>
		<path d="M12.954,9.928V9.73c0-0.654-0.563-1.184-1.217-1.184H8.743v2.566h2.993C12.391,11.112,12.954,10.582,12.954,9.928z"/>
		<path d="M11.766,12.658H8.743v2.796h2.961c0.921,0,1.444-0.589,1.444-1.316v-0.099C13.148,13.28,12.526,12.658,11.766,12.658z"/>
		<path d="M3,3v18h18V3H3z M11.956,17H7V7h4.967c1.831,0,2.796,1.217,2.796,2.467c0,1.546-1.009,2.237-1.711,2.368h0.063
			c0.75,0.141,1.827,0.878,1.827,2.53C14.943,15.827,14.029,17,11.956,17z M16.918,10.883l-0.68-0.583
			c0.561-0.399,0.96-0.917,1.036-1.392c0,0-0.14,0.032-0.259,0.032c-0.561,0-0.841-0.539-0.841-0.906S16.443,7,17.177,7
			c0.734,0,1.133,0.669,1.133,1.359C18.309,9.05,18.029,10.107,16.918,10.883z"/>
	</g>
</g>
</svg>
