<?xml version="1.0" encoding="utf-8"?>
<!-- Generator: Adobe Illustrator 18.1.1, SVG Export Plug-In . SVG Version: 6.00 Build 0)  -->
<svg version="1.1" xmlns="http://www.w3.org/2000/svg" xmlns:xlink="http://www.w3.org/1999/xlink" x="0px" y="0px"
	 viewBox="0 0 24 24" enable-background="new 0 0 24 24" xml:space="preserve">
<g id="bounds" display="none">
	<rect display="inline" fill="none" width="24" height="24"/>
</g>
<g id="Layer_2">
	<path d="M14.5,14c0,1.378-1.122,2.5-2.5,2.5S9.5,15.378,9.5,14s1.122-2.5,2.5-2.5S14.5,12.622,14.5,14z M21,8v10
		c0,1.105-0.895,2-2,2H5c-1.105,0-2-0.895-2-2v-8c0-1.105,0.895-2,2-2h7l2-2h5C20.105,6,21,6.895,21,8z M16,14c0-2.209-1.791-4-4-4
		s-4,1.791-4,4s1.791,4,4,4S16,16.209,16,14z M11,5.5L11,5.5C11,4.672,10.328,4,9.5,4h-2C6.672,4,6,4.672,6,5.5v0
		C6,6.328,6.672,7,7.5,7h2C10.328,7,11,6.328,11,5.5z"/>
</g>
</svg>
