<?xml version="1.0" encoding="utf-8"?>
<!-- Generator: Adobe Illustrator 18.1.1, SVG Export Plug-In . SVG Version: 6.00 Build 0)  -->
<svg version="1.1" xmlns="http://www.w3.org/2000/svg" xmlns:xlink="http://www.w3.org/1999/xlink" x="0px" y="0px"
	 viewBox="0 0 24 24" enable-background="new 0 0 24 24" xml:space="preserve">
<g id="bounds" display="none">
	<rect display="inline" fill="none" width="24" height="24"/>
</g>
<g id="Layer_2">
	<path d="M21.992,8.841c-0.002-0.013-0.005-0.025-0.007-0.037c-0.004-0.024-0.009-0.048-0.015-0.072
		c-0.004-0.014-0.009-0.028-0.013-0.042c-0.007-0.021-0.014-0.042-0.022-0.063c-0.006-0.014-0.013-0.028-0.019-0.042
		c-0.009-0.019-0.018-0.038-0.029-0.057c-0.008-0.014-0.016-0.027-0.024-0.04c-0.012-0.018-0.023-0.035-0.036-0.052
		c-0.009-0.013-0.019-0.025-0.029-0.037c-0.014-0.016-0.028-0.032-0.043-0.046c-0.011-0.012-0.022-0.023-0.034-0.034
		c-0.016-0.014-0.032-0.028-0.049-0.041c-0.013-0.01-0.026-0.02-0.039-0.029c-0.005-0.003-0.009-0.007-0.014-0.011l-9.141-6.094
		c-0.289-0.193-0.665-0.193-0.953,0L2.383,8.238C2.378,8.241,2.373,8.245,2.368,8.249C2.355,8.258,2.342,8.268,2.33,8.278
		C2.313,8.291,2.297,8.305,2.281,8.319C2.269,8.33,2.258,8.341,2.247,8.353C2.232,8.368,2.218,8.383,2.204,8.399
		c-0.01,0.012-0.02,0.025-0.03,0.037C2.162,8.453,2.15,8.471,2.138,8.489C2.13,8.502,2.122,8.515,2.114,8.529
		c-0.011,0.018-0.02,0.037-0.029,0.057C2.078,8.599,2.071,8.613,2.065,8.627C2.057,8.648,2.05,8.669,2.043,8.69
		C2.039,8.704,2.034,8.717,2.03,8.732C2.023,8.755,2.019,8.779,2.015,8.804C2.013,8.816,2.009,8.828,2.008,8.841
		C2.003,8.878,2,8.915,2,8.953v6.094c0,0.038,0.003,0.075,0.008,0.113c0.002,0.012,0.005,0.025,0.007,0.037
		c0.004,0.024,0.009,0.048,0.015,0.072c0.004,0.014,0.009,0.028,0.013,0.042c0.007,0.021,0.014,0.042,0.022,0.063
		c0.006,0.014,0.013,0.028,0.019,0.042c0.009,0.019,0.019,0.038,0.029,0.057c0.008,0.013,0.016,0.026,0.025,0.039
		c0.011,0.018,0.023,0.035,0.036,0.052c0.009,0.013,0.019,0.025,0.03,0.037c0.013,0.016,0.028,0.032,0.043,0.046
		c0.011,0.012,0.022,0.023,0.034,0.034c0.015,0.014,0.032,0.028,0.049,0.041c0.013,0.01,0.025,0.02,0.039,0.029
		c0.005,0.003,0.009,0.007,0.014,0.011l9.141,6.094C11.668,21.952,11.834,22,12,22c0.166,0,0.332-0.048,0.477-0.145l9.141-6.094
		c0.005-0.003,0.009-0.007,0.014-0.011c0.013-0.009,0.026-0.019,0.039-0.029c0.017-0.013,0.033-0.027,0.049-0.041
		c0.012-0.011,0.023-0.022,0.034-0.034c0.015-0.015,0.029-0.031,0.043-0.046c0.01-0.012,0.02-0.024,0.029-0.037
		c0.013-0.017,0.025-0.034,0.036-0.052c0.008-0.013,0.017-0.026,0.024-0.039c0.011-0.019,0.02-0.038,0.029-0.057
		c0.007-0.014,0.013-0.027,0.019-0.042c0.008-0.021,0.015-0.042,0.022-0.063c0.004-0.014,0.01-0.027,0.013-0.042
		c0.006-0.024,0.011-0.048,0.015-0.072c0.002-0.012,0.005-0.025,0.007-0.037C21.997,15.122,22,15.085,22,15.047V8.953
		C22,8.915,21.997,8.878,21.992,8.841z M12.859,4.465l6.734,4.489l-3.008,2.012l-3.726-2.492V4.465z M11.141,4.465v4.008
		l-3.726,2.492L4.407,8.954L11.141,4.465z M3.719,10.562L5.869,12l-2.15,1.438V10.562z M11.141,19.534l-6.734-4.489l3.008-2.012
		l3.726,2.492V19.534z M12,14.033L8.96,12L12,9.967L15.04,12L12,14.033z M12.859,19.534v-4.008l3.726-2.492l3.008,2.012
		L12.859,19.534z M20.281,13.438L18.131,12l2.15-1.438V13.438z"/>
</g>
</svg>
