<?xml version="1.0" encoding="utf-8"?>
<!-- Generator: Adobe Illustrator 18.1.1, SVG Export Plug-In . SVG Version: 6.00 Build 0)  -->
<svg version="1.1" xmlns="http://www.w3.org/2000/svg" xmlns:xlink="http://www.w3.org/1999/xlink" x="0px" y="0px"
	 viewBox="0 0 24 24" enable-background="new 0 0 24 24" xml:space="preserve">
<g id="bounds" display="none">
	<rect display="inline" fill="none" width="24" height="24"/>
</g>
<g id="Layer_2">
	<g>
		<polygon points="6.88,11.111 6.88,12.889 8.209,12 		"/>
		<polygon points="11.469,9.82 11.469,7.341 7.305,10.117 9.165,11.361 		"/>
		<polygon points="16.695,10.117 12.531,7.341 12.531,9.82 14.835,11.361 		"/>
		<polygon points="7.305,13.883 11.469,16.659 11.469,14.18 9.165,12.64 		"/>
		<polygon points="12.531,14.18 12.531,16.659 16.695,13.883 14.835,12.64 		"/>
		<polygon points="12,10.743 10.121,12 12,13.257 13.879,12 		"/>
		<path d="M12,2C6.477,2,2,6.477,2,12c0,5.523,4.477,10,10,10c5.523,0,10-4.477,10-10C22,6.477,17.523,2,12,2z M18.183,13.884
			c0,0.023-0.002,0.046-0.005,0.07c-0.001,0.007-0.003,0.015-0.004,0.023c-0.003,0.015-0.005,0.03-0.009,0.045
			c-0.002,0.009-0.006,0.017-0.008,0.026c-0.004,0.013-0.008,0.026-0.014,0.039c-0.004,0.009-0.008,0.017-0.012,0.026
			c-0.006,0.012-0.012,0.024-0.018,0.035c-0.005,0.008-0.01,0.016-0.015,0.024c-0.007,0.011-0.014,0.022-0.022,0.032
			c-0.006,0.008-0.012,0.016-0.018,0.023c-0.008,0.01-0.017,0.02-0.026,0.029c-0.007,0.007-0.014,0.014-0.021,0.021
			c-0.01,0.009-0.02,0.017-0.03,0.025c-0.008,0.006-0.016,0.012-0.024,0.018c-0.003,0.002-0.006,0.005-0.009,0.007l-5.652,3.768
			c-0.089,0.06-0.192,0.089-0.295,0.089c-0.103,0-0.205-0.03-0.295-0.089l-5.652-3.768c-0.003-0.002-0.006-0.005-0.009-0.007
			c-0.008-0.006-0.016-0.012-0.024-0.018c-0.01-0.008-0.02-0.017-0.03-0.025c-0.007-0.007-0.014-0.014-0.021-0.021
			c-0.009-0.009-0.018-0.019-0.027-0.029c-0.006-0.007-0.012-0.015-0.018-0.023c-0.008-0.01-0.015-0.021-0.022-0.032
			c-0.005-0.008-0.01-0.016-0.015-0.024c-0.007-0.012-0.012-0.023-0.018-0.035c-0.004-0.008-0.008-0.017-0.012-0.026
			c-0.005-0.013-0.01-0.026-0.014-0.039c-0.003-0.008-0.006-0.017-0.008-0.026c-0.004-0.015-0.007-0.03-0.009-0.045
			c-0.001-0.007-0.003-0.015-0.004-0.023c-0.003-0.023-0.005-0.046-0.005-0.07v-3.768c0-0.023,0.002-0.047,0.005-0.069
			c0.001-0.008,0.003-0.015,0.004-0.023c0.003-0.015,0.005-0.03,0.009-0.045C5.838,9.97,5.841,9.962,5.843,9.954
			c0.004-0.013,0.008-0.026,0.014-0.039c0.004-0.009,0.008-0.018,0.012-0.026c0.006-0.012,0.012-0.024,0.018-0.035
			c0.005-0.008,0.01-0.017,0.015-0.025c0.007-0.011,0.014-0.022,0.022-0.032C5.93,9.789,5.937,9.781,5.943,9.774
			c0.009-0.01,0.017-0.02,0.027-0.029c0.007-0.007,0.014-0.014,0.021-0.021C6,9.715,6.01,9.707,6.021,9.699
			c0.008-0.006,0.016-0.012,0.024-0.018c0.003-0.002,0.006-0.005,0.009-0.007l5.652-3.768c0.179-0.119,0.411-0.119,0.59,0
			l5.652,3.768c0.003,0.002,0.006,0.005,0.009,0.007c0.008,0.006,0.016,0.012,0.024,0.018c0.01,0.008,0.021,0.017,0.03,0.025
			c0.007,0.007,0.014,0.014,0.021,0.021c0.009,0.009,0.018,0.019,0.026,0.029c0.006,0.007,0.013,0.015,0.018,0.023
			c0.008,0.01,0.015,0.021,0.022,0.032c0.005,0.008,0.01,0.016,0.015,0.025c0.006,0.011,0.012,0.023,0.018,0.035
			c0.004,0.008,0.008,0.017,0.012,0.026c0.005,0.013,0.009,0.026,0.014,0.039c0.003,0.008,0.006,0.017,0.008,0.026
			c0.004,0.015,0.007,0.03,0.009,0.045c0.001,0.008,0.003,0.015,0.004,0.023c0.003,0.023,0.005,0.046,0.005,0.069V13.884z"/>
		<polygon points="17.12,12.889 17.12,11.111 15.791,12 		"/>
	</g>
</g>
</svg>
