<?xml version="1.0" encoding="utf-8"?>
<!-- Generator: Adobe Illustrator 18.1.1, SVG Export Plug-In . SVG Version: 6.00 Build 0)  -->
<svg version="1.1" xmlns="http://www.w3.org/2000/svg" xmlns:xlink="http://www.w3.org/1999/xlink" x="0px" y="0px"
	 viewBox="0 0 24 24" enable-background="new 0 0 24 24" xml:space="preserve">
<g id="bounds" display="none">
	<rect display="inline" fill="none" width="24" height="24"/>
</g>
<g id="Layer_2">
	<path fill-rule="evenodd" clip-rule="evenodd" d="M11.999,2C6.478,2,2,6.477,2,12.001c0,4.418,2.865,8.166,6.839,9.488
		c0.5,0.092,0.683-0.217,0.683-0.482c0-0.237-0.009-0.866-0.014-1.701c-2.782,0.604-3.369-1.34-3.369-1.34
		c-0.455-1.155-1.11-1.463-1.11-1.463c-0.908-0.62,0.069-0.608,0.069-0.608c1.004,0.071,1.532,1.031,1.532,1.031
		c0.892,1.528,2.34,1.087,2.91,0.831c0.091-0.646,0.349-1.087,0.635-1.337c-2.221-0.252-4.555-1.11-4.555-4.942
		c0-1.092,0.39-1.984,1.029-2.683c-0.103-0.253-0.446-1.27,0.098-2.646c0,0,0.84-0.269,2.75,1.025
		c0.798-0.222,1.653-0.333,2.504-0.337c0.849,0.004,1.705,0.115,2.504,0.337c1.909-1.294,2.747-1.025,2.747-1.025
		c0.546,1.377,0.202,2.393,0.1,2.646c0.641,0.699,1.028,1.592,1.028,2.683c0,3.842-2.338,4.687-4.566,4.935
		c0.359,0.309,0.679,0.919,0.679,1.852c0,1.337-0.012,2.415-0.012,2.743c0,0.267,0.18,0.579,0.688,0.481
		C19.137,20.163,22,16.417,22,12.001C22,6.477,17.522,2,11.999,2z"/>
</g>
</svg>
