<?xml version="1.0" encoding="utf-8"?>
<!-- Generator: Adobe Illustrator 18.1.1, SVG Export Plug-In . SVG Version: 6.00 Build 0)  -->
<svg version="1.1" xmlns="http://www.w3.org/2000/svg" xmlns:xlink="http://www.w3.org/1999/xlink" x="0px" y="0px"
	 viewBox="0 0 24 24" enable-background="new 0 0 24 24" xml:space="preserve">
<g id="bounds" display="none">
	<rect display="inline" fill="none" width="24" height="24"/>
</g>
<g id="Layer_2">
	<path d="M6,14v2h12v2H6c-1.105,0-2-0.895-2-2V4H2V2h2c1.105,0,2,0.895,2,2v1h16l-4,9H6z M5.5,19C4.672,19,4,19.672,4,20.5
		S4.672,22,5.5,22S7,21.328,7,20.5S6.328,19,5.5,19z M15.5,19c-0.828,0-1.5,0.672-1.5,1.5s0.672,1.5,1.5,1.5s1.5-0.672,1.5-1.5
		S16.328,19,15.5,19z"/>
</g>
</svg>
