<?xml version="1.0" encoding="utf-8"?>
<!-- Generator: Adobe Illustrator 18.1.1, SVG Export Plug-In . SVG Version: 6.00 Build 0)  -->
<svg version="1.1" xmlns="http://www.w3.org/2000/svg" xmlns:xlink="http://www.w3.org/1999/xlink" x="0px" y="0px"
	 viewBox="0 0 24 24" enable-background="new 0 0 24 24" xml:space="preserve">
<g id="bounds" display="none">
	<rect display="inline" fill="none" width="24" height="24"/>
</g>
<g id="Layer_2">
	<path d="M4,21h6.657c0.53,0,1.039-0.211,1.414-0.586l8.636-8.636c0.391-0.391,0.391-1.024,0-1.414l-7.071-7.071
		c-0.391-0.391-1.024-0.391-1.414,0l-8.636,8.636C3.211,12.304,3,12.813,3,13.343V20C3,20.552,3.448,21,4,21z M6.5,16
		C7.328,16,8,16.672,8,17.5S7.328,19,6.5,19S5,18.328,5,17.5S5.672,16,6.5,16z"/>
</g>
</svg>
