<?xml version="1.0" encoding="utf-8"?>
<!-- Generator: Adobe Illustrator 18.1.1, SVG Export Plug-In . SVG Version: 6.00 Build 0)  -->
<svg version="1.1" xmlns="http://www.w3.org/2000/svg" xmlns:xlink="http://www.w3.org/1999/xlink" x="0px" y="0px"
	 viewBox="0 0 24 24" enable-background="new 0 0 24 24" xml:space="preserve">
<g id="bounds" display="none">
	<rect display="inline" fill="none" width="24" height="24"/>
</g>
<g id="Layer_2">
	<path d="M21.221,11.324c-0.077,0.055-0.152,0.101-0.228,0.153V4c0-1.105-0.895-2-2-2h-14c-1.105,0-2,0.895-2,2v7.467
		c-0.071-0.049-0.142-0.092-0.214-0.143c-0.609-0.425-1.008,0.153-0.634,0.706c0.727,0.89,2.108,1.995,4.226,2.865
		c-2.241,7.633,5.469,8.845,5.351,4.932c0,0.073,0.004-2.221,0.007-3.848c0.202,0.048,0.378,0.094,0.543,0.135
		c0.003,1.616,0.007,3.784,0.007,3.714c-0.118,3.913,7.597,2.701,5.351-4.932c2.118-0.869,3.499-1.975,4.226-2.865
		C22.229,11.477,21.83,10.899,21.221,11.324z M13.614,13.268c-0.938-0.047-1.286,0.356-1.335,0.976
		c-0.229-0.162-0.461-0.344-0.701-0.567c-0.039-0.036-0.069-0.056-0.105-0.086c-0.085-0.093-0.195-0.166-0.331-0.22
		c-0.013-0.005-0.028-0.012-0.04-0.016c-0.188-0.067-0.42-0.101-0.716-0.086c-1.283,0.04-3.647,0.299-6.393-1.185V4
		c0-0.551,0.449-1,1-1h14c0.551,0,1,0.449,1,1v8.09C17.253,13.565,14.894,13.308,13.614,13.268z M11.736,10.035
		c0,1.269-1.1,2.297-2.455,2.297c-1.356,0-2.456-1.028-2.456-2.297c0-1.269,1.1-2.297,2.456-2.297
		C10.637,7.738,11.736,8.766,11.736,10.035z M17.451,10.035c0,1.269-1.1,2.297-2.456,2.297c-1.356,0-2.456-1.028-2.456-2.297
		c0-1.269,1.1-2.297,2.456-2.297C16.351,7.738,17.451,8.766,17.451,10.035z"/>
</g>
</svg>
