<?xml version="1.0" encoding="utf-8"?>
<!-- Generator: Adobe Illustrator 18.1.1, SVG Export Plug-In . SVG Version: 6.00 Build 0)  -->
<svg version="1.1" xmlns="http://www.w3.org/2000/svg" xmlns:xlink="http://www.w3.org/1999/xlink" x="0px" y="0px"
	 viewBox="0 0 24 24" enable-background="new 0 0 24 24" xml:space="preserve">
<g id="bounds" display="none">
	<rect display="inline" fill="none" width="24" height="24"/>
</g>
<g id="Layer_2">
	<path d="M3,3v18h18V3H3z M17.053,9.179h-0.4c-0.148,0-0.358,0.214-0.358,0.351v4.967c0,0.137,0.21,0.324,0.358,0.324h0.4V16h-3.621
		v-1.179h0.758V9.6h-0.037l-1.77,6.4h-1.37L9.265,9.6H9.221v5.221h0.758V16H6.947v-1.179h0.388c0.16,0,0.37-0.187,0.37-0.324V9.53
		c0-0.137-0.21-0.351-0.37-0.351H6.947V8h3.791l1.245,4.632h0.034L13.273,8h3.779V9.179z"/>
</g>
</svg>
