<?xml version="1.0" encoding="utf-8"?>
<!-- Generator: Adobe Illustrator 18.1.1, SVG Export Plug-In . SVG Version: 6.00 Build 0)  -->
<svg version="1.1" xmlns="http://www.w3.org/2000/svg" xmlns:xlink="http://www.w3.org/1999/xlink" x="0px" y="0px"
	 viewBox="0 0 24 24" enable-background="new 0 0 24 24" xml:space="preserve">
<g id="bounds" display="none">
	<rect display="inline" fill="none" width="24" height="24"/>
</g>
<g id="Layer_2">
	<path d="M14.126,13.874l-2.251,2.251c-1.558-1.087-2.913-2.442-4-4l2.251-2.251c0.536-0.536,0.723-1.328,0.483-2.047l-1.153-3.46
		C9.184,3.551,8.419,3,7.558,3H5.128C3.909,3,2.991,4.08,3.144,5.289C4.174,13.4,10.6,19.826,18.711,20.856
		C19.92,21.009,21,20.091,21,18.872v-2.431c0-0.861-0.551-1.625-1.368-1.897l-3.46-1.153C15.454,13.151,14.662,13.338,14.126,13.874
		z"/>
</g>
</svg>
