<?xml version="1.0" encoding="utf-8"?>
<!-- Generator: Adobe Illustrator 18.1.1, SVG Export Plug-In . SVG Version: 6.00 Build 0)  -->
<svg version="1.1" xmlns="http://www.w3.org/2000/svg" xmlns:xlink="http://www.w3.org/1999/xlink" x="0px" y="0px"
	 viewBox="0 0 24 24" enable-background="new 0 0 24 24" xml:space="preserve">
<g id="bounds" display="none">
	<rect display="inline" fill="none" width="24" height="24"/>
</g>
<g id="Layer_2">
	<path fill-rule="evenodd" clip-rule="evenodd" d="M12,22C6.486,22,2,17.514,2,12C2,6.486,6.486,2,12,2c5.514,0,10,4.486,10,10
		C22,17.514,17.514,22,12,22L12,22z M20.434,13.369c-0.292-0.092-2.644-0.794-5.32-0.365c1.117,3.07,1.572,5.57,1.659,6.09
		C18.689,17.798,20.053,15.746,20.434,13.369L20.434,13.369z M15.337,19.876c-0.127-0.749-0.623-3.361-1.822-6.477
		c-0.019,0.006-0.038,0.012-0.056,0.019c-4.818,1.679-6.547,5.02-6.701,5.334c1.448,1.129,3.268,1.803,5.243,1.803
		C13.183,20.555,14.311,20.313,15.337,19.876L15.337,19.876z M5.654,17.724c0.193-0.331,2.538-4.213,6.943-5.637
		c0.111-0.036,0.224-0.07,0.337-0.102c-0.214-0.485-0.448-0.971-0.693-1.45c-4.266,1.277-8.405,1.223-8.778,1.216
		c-0.003,0.087-0.004,0.174-0.004,0.261C3.458,14.207,4.29,16.21,5.654,17.724L5.654,17.724z M3.639,10.264
		c0.382,0.005,3.901,0.02,7.897-1.041c-1.415-2.516-2.942-4.631-3.167-4.94C5.979,5.41,4.193,7.613,3.639,10.264L3.639,10.264z
		 M9.998,3.709c0.236,0.316,1.787,2.429,3.187,5c3.037-1.138,4.323-2.867,4.477-3.085C16.154,4.286,14.17,3.471,12,3.471
		C11.311,3.471,10.641,3.554,9.998,3.709L9.998,3.709z M18.612,6.612C18.432,6.855,17,8.69,13.842,9.979
		c0.199,0.407,0.389,0.821,0.567,1.237c0.063,0.148,0.124,0.295,0.184,0.441c2.842-0.357,5.666,0.215,5.948,0.275
		C20.522,9.916,19.801,8.065,18.612,6.612L18.612,6.612z"/>
</g>
</svg>
