<?xml version="1.0" encoding="utf-8"?>
<!-- Generator: Adobe Illustrator 18.1.1, SVG Export Plug-In . SVG Version: 6.00 Build 0)  -->
<svg version="1.1" xmlns="http://www.w3.org/2000/svg" xmlns:xlink="http://www.w3.org/1999/xlink" x="0px" y="0px"
	 viewBox="0 0 24 24" enable-background="new 0 0 24 24" xml:space="preserve">
<g id="bounds" display="none">
	<rect display="inline" fill="none" width="24" height="24"/>
</g>
<g id="Layer_2">
	<path d="M19,5H5C3.895,5,3,5.895,3,7v8c0,1.105,0.895,2,2,2h9l4,4v-4h1c1.105,0,2-0.895,2-2V7C21,5.895,20.105,5,19,5z M7.5,12.5
		C6.672,12.5,6,11.828,6,11s0.672-1.5,1.5-1.5S9,10.172,9,11S8.328,12.5,7.5,12.5z M12,12.5c-0.828,0-1.5-0.672-1.5-1.5
		s0.672-1.5,1.5-1.5s1.5,0.672,1.5,1.5S12.828,12.5,12,12.5z M16.5,12.5c-0.828,0-1.5-0.672-1.5-1.5s0.672-1.5,1.5-1.5
		S18,10.172,18,11S17.328,12.5,16.5,12.5z"/>
</g>
</svg>
