<?xml version="1.0" standalone="no"?> 
<!DOCTYPE svg PUBLIC "-//W3C//DTD SVG 1.1//EN" "http://www.w3.org/Graphics/SVG/1.1/DTD/svg11.dtd" >
<svg xmlns="http://www.w3.org/2000/svg">
<defs>
  <font id="themicons" horiz-adv-x="24">
    <font-face font-family="themicons"
      units-per-em="512" ascent="448"
      descent="64" />
    <missing-glyph horiz-adv-x="0" />
    <glyph glyph-name="amazon"
      unicode="&#xF100;"
      horiz-adv-x="512" d=" M411.1573333333333 53.80266666666665C362.1546666666666 27.562666666666644 308.928 14.933333333333337 260.45866666666666 14.933333333333337C188.67199999999997 14.933333333333337 119.14666666666666 39.74400000000003 62.91199999999999 80.95999999999998C57.983999999999995 84.56533333333334 54.33599999999999 78.20799999999997 58.453333333333326 73.5573333333333C110.57066666666665 14.314666666666653 179.41333333333333 -21.333333333333314 255.89333333333332 -21.333333333333314C310.44266666666664 -21.333333333333314 373.8026666666666 0.32000000000005 417.5146666666666 40.93866666666668C424.76800000000003 47.637333333333345 418.56 57.74933333333337 411.1573333333333 53.80266666666665zM453.78133333333335 79.4666666666667C448.9173333333333 85.46133333333336 407.21066666666667 90.60266666666666 381.7386666666667 72.72533333333342C377.81333333333333 69.97333333333336 378.51733333333334 66.1973333333334 382.848 66.73066666666676C397.184 68.43733333333341 429.09866666666665 72.27733333333344 434.79466666666667 64.9813333333334C440.49066666666664 57.68533333333346 428.48 27.690666666666743 423.1039999999999 14.314666666666767C421.4826666666666 10.261333333333369 424.9813333333333 8.61866666666674 428.6293333333333 11.690666666666743C452.48 31.637333333333345 458.64533333333327 73.45066666666673 453.78133333333335 79.4666666666667zM290.5813333333333 283.392C258.06933333333336 279.7866666666667 215.57333333333332 277.3546666666667 185.152 263.9786666666667C150.03733333333332 248.8106666666667 125.35466666666667 217.89866666666668 125.35466666666667 172.41600000000005C125.35466666666667 114.17600000000004 162.09066666666666 85.07733333333334 209.30133333333333 85.07733333333334C249.17333333333332 85.07733333333334 270.95466666666664 94.4853333333333 301.71733333333333 125.82400000000001C311.936 111.10400000000004 315.24266666666665 103.93600000000004 333.90933333333334 88.46933333333334C338.048 86.20799999999997 343.42400000000004 86.42133333333334 347.136 89.77066666666667L347.28533333333337 89.64266666666663C358.4426666666667 99.6053333333333 378.7946666666667 117.2693333333333 390.27200000000005 126.86933333333332C394.8373333333334 130.5813333333333 394.0693333333334 136.66133333333335 390.4426666666667 141.76C380.22400000000005 155.904 369.3013333333334 167.42399999999998 369.3013333333334 193.68533333333335V280.98133333333334C369.3013333333334 317.97333333333336 371.8826666666667 351.95733333333334 344.61866666666674 377.408C323.11466666666666 398.0586666666667 287.44533333333334 405.3333333333333 260.1813333333333 405.3333333333333C206.82666666666665 405.3333333333333 147.2853333333333 385.4506666666667 134.784 319.53066666666666C133.44 312.53333333333336 138.58133333333333 308.8426666666667 143.168 307.84000000000003L197.50400000000002 301.952C202.6026666666667 302.20799999999997 206.29333333333335 307.20000000000005 207.25333333333336 312.27733333333333C211.92533333333336 334.95466666666664 230.93333333333334 345.92 252.30933333333337 345.92C263.872 345.92 276.9706666666667 341.6533333333333 283.7973333333333 331.392C291.648 319.82933333333335 290.60266666666666 304.064 290.60266666666666 290.70933333333335V283.392zM290.5813333333333 226.38933333333335C290.5813333333333 204.54400000000004 291.0933333333333 186.36800000000005 280.0853333333333 166.9546666666667C271.18933333333337 151.1466666666667 257.00266666666664 141.46133333333336 241.30133333333336 141.46133333333336C219.776 141.46133333333336 207.18933333333337 157.86666666666667 207.18933333333337 182.10133333333334C207.18933333333337 229.84533333333331 250.04800000000003 238.528 290.58133333333336 238.528V226.38933333333335z" />
    <glyph glyph-name="apple"
      unicode="&#xF101;"
      horiz-adv-x="512" d=" M434.9653333333333 275.4986666666667C411.92533333333324 304.192 379.6266666666666 320.8106666666667 349.11999999999995 320.8106666666667C308.7786666666666 320.8106666666667 291.712 301.65333333333336 263.7226666666666 301.65333333333336C234.85866666666664 301.65333333333336 212.92799999999994 320.7893333333334 178.02666666666664 320.7893333333334C143.74399999999997 320.7893333333334 107.30666666666664 299.968 84.1813333333333 264.384C51.669333333333306 214.336 57.173333333333304 120.1493333333334 109.90933333333331 39.91466666666673C128.76799999999997 11.242666666666707 153.94133333333332 -21.03466666666668 186.88 -21.333333333333314C216.14933333333332 -21.610666666666702 224.42666666666665 -2.6666666666666288 264.1493333333333 -2.4320000000000164C303.85066666666665 -2.2186666666666497 311.3813333333333 -21.52533333333332 340.6293333333333 -21.269333333333293C373.5466666666666 -20.9493333333333 400.128 14.76266666666669 418.9653333333333 43.47733333333338C432.4693333333333 64.02133333333336 437.50399999999996 74.41066666666666 448 97.66399999999999C371.77599999999995 126.46400000000006 359.5093333333333 234.17600000000002 434.9653333333333 275.4986666666667z M318.50666666666666 352.8746666666667C333.1626666666666 371.6906666666667 344.29866666666663 398.2506666666667 340.26666666666665 425.408C316.3093333333333 423.744 288.29866666666663 408.512 271.9573333333333 388.672C257.1093333333333 370.6453333333334 244.86399999999998 343.9146666666667 249.6213333333333 317.9306666666667C275.75466666666665 317.12 302.80533333333335 332.736 318.50666666666666 352.8746666666667z" />
    <glyph glyph-name="arrow-down"
      unicode="&#xF200;"
      horiz-adv-x="512" d=" M353.91999999999996 179.41333333333336L277.3333333333333 102.99733333333336L277.3333333333333 362.6666666666667L234.66666666666666 362.6666666666667L234.66666666666666 102.99733333333336L158.07999999999998 179.41333333333336L128 149.33333333333337L256 21.33333333333337L384 149.33333333333337z" />
    <glyph glyph-name="arrow-left"
      unicode="&#xF201;"
      horiz-adv-x="512" d=" M426.66666666666663 213.33333333333334L166.99733333333333 213.33333333333334L243.41333333333333 289.92L213.33333333333331 320L85.33333333333333 192L213.33333333333331 64L243.41333333333333 94.08000000000004L166.99733333333333 170.66666666666669L426.66666666666663 170.66666666666669z" />
    <glyph glyph-name="arrow-right"
      unicode="&#xF202;"
      horiz-adv-x="512" d=" M298.66666666666663 320L268.58666666666664 289.92L345.00266666666664 213.33333333333334L85.33333333333333 213.33333333333334L85.33333333333333 170.66666666666669L345.00266666666664 170.66666666666669L268.58666666666664 94.08000000000004L298.66666666666663 64L426.66666666666663 192z" />
    <glyph glyph-name="arrow-up"
      unicode="&#xF203;"
      horiz-adv-x="512" d=" M384 234.66666666666669L256 362.6666666666667L128 234.66666666666669L158.07999999999998 204.58666666666667L234.66666666666666 281.00266666666664L234.66666666666666 21.33333333333337L277.3333333333333 21.33333333333337L277.3333333333333 281.00266666666664L353.91999999999996 204.58666666666667z" />
    <glyph glyph-name="bandcamp"
      unicode="&#xF102;"
      horiz-adv-x="512" d=" M206.144 136.85333333333335C209.17333333333332 133.01333333333332 212.82133333333334 129.98400000000004 217.0453333333333 127.74400000000003C221.26933333333332 125.50400000000002 226.19733333333332 124.3946666666667 231.78666666666666 124.3946666666667C238.016 124.3946666666667 243.2853333333333 125.67466666666667 247.61599999999999 128.23466666666667C251.9253333333333 130.79466666666667 255.48799999999997 134.10133333333334 258.2826666666666 138.176C261.0773333333333 142.2506666666667 263.0826666666666 146.88 264.27733333333333 152.08533333333332C265.472 157.2693333333333 266.0693333333333 162.60266666666666 266.0693333333333 168.0213333333333C266.0693333333333 173.61066666666665 265.34399999999994 179.05066666666664 263.9146666666666 184.31999999999994C262.46399999999994 189.5893333333333 260.30933333333326 194.26133333333325 257.4506666666666 198.33599999999996C254.57066666666663 202.41066666666663 250.9866666666666 205.6746666666666 246.65599999999995 208.17066666666662C242.3466666666666 210.64533333333327 237.37599999999992 211.8826666666666 231.78666666666663 211.8826666666666C220.28799999999995 211.8826666666666 211.6053333333333 207.8933333333333 205.7813333333333 199.8933333333333C199.9573333333333 191.89333333333332 197.03466666666662 181.2693333333333 197.03466666666662 167.99999999999994C197.03466666666662 161.7706666666666 197.80266666666662 155.96799999999996 199.3173333333333 150.6133333333333C200.832 145.28000000000003 203.11466666666666 140.69333333333338 206.144 136.85333333333335z M448 362.6666666666667H64C52.224 362.6666666666667 42.666666666666664 353.1093333333333 42.666666666666664 341.33333333333337V277.33333333333337H170.66666666666666H197.99466666666666V214.03733333333332H198.464C200.38400000000001 217.06666666666666 202.68800000000002 219.7973333333333 205.4186666666667 222.18666666666667S211.13600000000002 226.624 214.4 228.30933333333334S221.12 231.27466666666666 224.704 232.14933333333335C228.30933333333337 233.024 231.8506666666667 233.47199999999998 235.3706666666667 233.47199999999998C245.12000000000003 233.47199999999998 253.632 231.744 260.90666666666664 228.3093333333333C268.1813333333333 224.87466666666666 274.21866666666665 220.15999999999997 278.99733333333336 214.1653333333333C283.7973333333333 208.17066666666662 287.3813333333334 201.1733333333333 289.79200000000003 193.19466666666662C292.1813333333333 185.19466666666665 293.376 176.6613333333333 293.376 167.55199999999996C293.376 159.23199999999997 292.288 151.16799999999995 290.1333333333333 143.33866666666665C287.97866666666664 135.5093333333333 284.6933333333333 128.59733333333327 280.2986666666667 122.60266666666666C275.904 116.60799999999995 270.3573333333334 111.80799999999999 263.63733333333334 108.22399999999999C256.9173333333333 104.61866666666668 249.024 102.82666666666671 239.91466666666668 102.82666666666671C235.75466666666665 102.82666666666671 231.55200000000002 103.10400000000004 227.328 103.6586666666667C223.08266666666668 104.21333333333337 219.05066666666667 105.30133333333345 215.21066666666667 106.90133333333335C211.3706666666667 108.50133333333338 207.89333333333335 110.57066666666674 204.77866666666665 113.13066666666668C201.664 115.69066666666669 199.06133333333332 119.04000000000002 196.992 123.20000000000005H196.56533333333334V106.17600000000004H170.66666666666666V277.33333333333337L64 106.28266666666667H42.666666666666664V42.666666666666686C42.666666666666664 30.890666666666675 52.224 21.33333333333337 64 21.33333333333337H448C459.77599999999995 21.33333333333337 469.3333333333333 30.890666666666675 469.3333333333333 42.666666666666686V341.33333333333337C469.3333333333333 353.1093333333333 459.77599999999995 362.6666666666667 448 362.6666666666667zM334.76266666666663 151.4666666666667C335.9573333333333 146.3466666666667 337.87733333333335 141.8026666666667 340.5226666666666 137.79200000000003C343.16799999999995 133.8026666666667 346.56 130.56 350.72 128.08533333333332C354.88 125.6106666666667 359.9146666666667 124.37333333333333 365.82399999999996 124.37333333333333C373.82399999999996 124.37333333333333 380.416 126.84800000000001 385.59999999999997 131.79733333333337C390.78399999999993 136.74666666666667 394.02666666666664 143.70133333333337 395.3066666666666 152.66133333333335H422.6346666666666C420.07466666666653 136.51200000000006 413.97333333333324 124.16000000000003 404.2879999999999 115.62666666666667C394.6239999999999 107.072 381.8026666666666 102.80533333333335 365.8026666666666 102.80533333333335C356.0533333333333 102.80533333333335 347.45599999999996 104.44800000000004 340.0319999999999 107.71199999999999C332.60799999999995 110.976 326.33599999999996 115.45600000000002 321.21599999999995 121.13066666666668C316.09599999999995 126.80533333333335 312.2346666666666 133.54666666666668 309.5893333333333 141.39733333333334C306.94399999999996 149.22666666666663 305.6426666666666 157.69599999999997 305.6426666666666 166.80533333333335C305.6426666666666 176.06399999999996 306.9226666666666 184.78933333333333 309.4826666666666 192.93866666666665C312.0426666666666 201.08799999999997 315.8613333333333 208.17066666666665 320.9813333333333 214.1653333333333C326.1013333333333 220.15999999999997 332.4373333333333 224.87466666666666 340.0319999999999 228.3093333333333C347.6266666666666 231.74399999999997 356.5439999999999 233.47199999999998 366.7626666666666 233.47199999999998C373.9519999999999 233.47199999999998 380.7786666666666 232.55466666666666 387.2639999999999 230.72C393.7279999999999 228.88533333333334 399.4879999999999 226.13333333333333 404.52266666666657 222.44266666666667C409.55733333333325 218.7733333333333 413.67466666666655 214.12266666666665 416.8746666666666 208.53333333333336C420.07466666666653 202.94400000000002 421.99466666666655 196.30933333333334 422.6346666666666 188.62933333333336H395.3066666666667C394.19733333333335 196.30933333333334 391.10400000000004 202.0906666666667 386.06933333333336 206.01600000000002C381.0346666666667 209.92000000000002 374.67733333333337 211.8826666666667 367.01866666666666 211.8826666666667C363.4986666666667 211.8826666666667 359.74399999999997 211.28533333333334 355.7546666666667 210.0906666666667C351.76533333333333 208.89600000000004 348.0746666666667 206.65600000000003 344.72533333333337 203.3706666666667C341.37600000000003 200.08533333333338 338.56000000000006 195.54133333333334 336.34133333333335 189.69600000000003C334.10133333333334 183.8506666666667 332.992 176.23466666666673 332.992 166.80533333333335C332.97066666666666 161.7066666666667 333.568 156.5866666666667 334.76266666666663 151.4666666666667z" />
    <glyph glyph-name="caret-down"
      unicode="&#xF204;"
      horiz-adv-x="512" d=" M149.33333333333331 234.66666666666669L256 128L362.66666666666663 234.66666666666669z" />
    <glyph glyph-name="caret-left"
      unicode="&#xF205;"
      horiz-adv-x="512" d=" M298.66666666666663 298.6666666666667L192 192L298.66666666666663 85.33333333333337z" />
    <glyph glyph-name="caret-right"
      unicode="&#xF206;"
      horiz-adv-x="512" d=" M213.33333333333331 85.33333333333337L320 192L213.33333333333331 298.6666666666667z" />
    <glyph glyph-name="caret-up"
      unicode="&#xF207;"
      horiz-adv-x="512" d=" M362.66666666666663 149.33333333333337L256 256L149.33333333333331 149.33333333333337z" />
    <glyph glyph-name="chevron-down"
      unicode="&#xF208;"
      horiz-adv-x="512" d=" M158.07999999999998 264.74666666666667L256 167.04000000000002L353.91999999999996 264.74666666666667L384 234.66666666666669L256 106.66666666666669L128 234.66666666666669L158.07999999999998 264.74666666666667z" />
    <glyph glyph-name="chevron-left"
      unicode="&#xF209;"
      horiz-adv-x="512" d=" M328.74666666666667 289.92L231.04 192L328.74666666666667 94.08000000000004L298.66666666666663 64L170.66666666666666 192L298.66666666666663 320L328.74666666666667 289.92z" />
    <glyph glyph-name="chevron-right"
      unicode="&#xF20A;"
      horiz-adv-x="512" d=" M183.25333333333333 94.08000000000004L280.96 192L183.25333333333333 289.92L213.33333333333331 320L341.3333333333333 192L213.33333333333331 64L183.25333333333333 94.08000000000004z" />
    <glyph glyph-name="chevron-up"
      unicode="&#xF20B;"
      horiz-adv-x="512" d=" M353.91999999999996 119.25333333333333L256 216.96L158.07999999999998 119.25333333333333L128 149.33333333333337L256 277.33333333333337L384 149.33333333333337L353.91999999999996 119.25333333333333z" />
    <glyph glyph-name="close"
      unicode="&#xF20C;"
      horiz-adv-x="512" d=" M448 353.92L417.91999999999996 384L256 222.08L94.08 384L64 353.92L225.92 192L64 30.08000000000004L94.08 0L256 161.92000000000002L417.91999999999996 0L448 30.08000000000004L286.08 192L448 353.92z" />
    <glyph glyph-name="external"
      unicode="&#xF20D;"
      horiz-adv-x="512" d=" M256 362.6666666666667L256 320L353.83466666666664 320L192 158.16533333333336L222.1653333333333 128L384 289.8346666666667L384 192L426.66666666666663 192L426.66666666666663 362.6666666666667z M341.3333333333333 64L128 64L128 277.33333333333337L213.33333333333331 277.33333333333337L213.33333333333331 320L85.33333333333333 320L85.33333333333333 21.33333333333337L384 21.33333333333337L384 149.33333333333337L341.3333333333333 149.33333333333337z" />
    <glyph glyph-name="facebook-alt"
      unicode="&#xF104;"
      horiz-adv-x="512" d=" M279.168 0V175.68H338.1333333333333L346.9653333333333 244.13866666666667H279.16799999999995V287.872C279.16799999999995 307.6906666666667 284.6719999999999 321.19466666666665 313.10933333333327 321.19466666666665L349.376 321.216V382.4426666666667C343.1039999999999 383.2746666666667 321.5786666666666 385.1306666666667 296.55466666666666 385.1306666666667C244.288 385.1306666666667 208.49066666666664 353.216 208.49066666666664 294.6346666666667V244.13866666666667H149.33333333333331V175.68H208.448V0H279.168z" />
    <glyph glyph-name="facebook"
      unicode="&#xF103;"
      horiz-adv-x="512" d=" M426.66666666666663 384H85.33333333333333C73.55733333333333 384 64 374.4426666666667 64 362.6666666666667V21.33333333333337C64 9.55733333333336 73.55733333333333 0 85.33333333333333 0H269.09866666666665V148.7146666666667H219.05066666666667V206.67733333333337H269.09866666666665V249.38666666666666C269.09866666666665 298.9866666666667 299.392 325.99466666666666 343.63733333333334 325.99466666666666C364.8213333333333 325.99466666666666 383.04 324.416 388.352 323.712V271.872L357.6533333333333 271.8506666666667C333.58933333333334 271.8506666666667 328.9386666666667 260.41600000000005 328.9386666666667 243.648V206.656H386.32533333333333L378.85866666666664 148.69333333333333H328.9386666666667V0H426.66666666666663C438.44266666666664 0 448 9.55733333333336 448 21.33333333333337V362.6666666666667C448 374.4426666666667 438.44266666666664 384 426.66666666666663 384z" />
    <glyph glyph-name="fast-forward"
      unicode="&#xF150;"
      horiz-adv-x="512" d=" M64 64V320L256 192L64 64zM448 192L256 320V64L448 192z" />
    <glyph glyph-name="feed"
      unicode="&#xF20E;"
      horiz-adv-x="512" d=" M170.66666666666666 64C170.66666666666666 40.42666666666668 151.552 21.33333333333337 128 21.33333333333337S85.33333333333333 40.42666666666668 85.33333333333333 64C85.33333333333333 87.57333333333338 104.448 106.66666666666669 128 106.66666666666669S170.66666666666666 87.57333333333338 170.66666666666666 64zM85.33333333333333 245.33333333333334V181.33333333333337C173.54666666666665 181.33333333333337 245.33333333333331 109.54666666666668 245.33333333333331 21.33333333333337H309.3333333333333C309.3333333333333 145.04533333333336 209.0453333333333 245.33333333333334 85.33333333333333 245.33333333333334zM85.33333333333333 362.6666666666667V298.6666666666667C238.25066666666663 298.6666666666667 362.66666666666663 174.2506666666667 362.66666666666663 21.33333333333337H426.66666666666663C426.66666666666663 209.856 273.856 362.6666666666667 85.33333333333333 362.6666666666667z" />
    <glyph glyph-name="flickr"
      unicode="&#xF105;"
      horiz-adv-x="512" d=" M234.66666666666666 192C234.66666666666666 144.8746666666667 196.45866666666666 106.66666666666669 149.33333333333331 106.66666666666669S64 144.8746666666667 64 192S102.208 277.33333333333337 149.33333333333331 277.33333333333337S234.66666666666666 239.12533333333334 234.66666666666666 192zM362.66666666666663 277.33333333333337C315.54133333333334 277.33333333333337 277.3333333333333 239.12533333333334 277.3333333333333 192S315.54133333333334 106.66666666666669 362.66666666666663 106.66666666666669S448 144.8746666666667 448 192S409.792 277.33333333333337 362.66666666666663 277.33333333333337z" />
    <glyph glyph-name="googleplay-alt"
      unicode="&#xF107;"
      horiz-adv-x="512" d=" M286.01599999999996 192.08533333333332L93.93066666666665 0C88.70400000000001 3.178666666666686 85.33333333333333 9.898666666666657 85.33333333333333 19.0506666666667V364.7786666666667C85.33333333333333 374.10133333333334 88.70400000000001 380.8213333333333 94.29333333333332 384L286.01599999999996 192.08533333333332zM348.3733333333333 129.92000000000002L121.72800000000001 5.226666666666688L297.38666666666666 180.8853333333334L348.3733333333333 129.92000000000002zM347.9893333333333 254.08L297.408 203.3066666666667L122.66666666666666 378.02666666666664L347.9893333333333 254.08zM431.44533333333334 175.6586666666667L362.944 137.77066666666667L308.62933333333336 192.08533333333332L362.58133333333336 246.03733333333332L431.4666666666667 208.14933333333335C447.87199999999996 199.18933333333334 447.87199999999996 184.61866666666668 431.44533333333334 175.6586666666667z" />
    <glyph glyph-name="googleplay"
      unicode="&#xF106;"
      horiz-adv-x="512" d=" M340.9493333333333 320V362.6666666666667C340.9493333333333 386.3466666666667 321.9626666666666 405.3333333333333 298.2826666666666 405.3333333333333H212.9493333333333C189.26933333333332 405.3333333333333 170.28266666666664 386.3466666666667 170.28266666666664 362.6666666666667V320H42.28266666666665V42.666666666666686C42.28266666666665 18.98666666666668 61.26933333333332 0 84.94933333333331 0H426.2826666666666C449.9626666666666 0 468.9493333333333 18.98666666666668 468.9493333333333 42.666666666666686V320H340.9493333333333zM212.9493333333333 362.6666666666667H298.2826666666666V320H212.9493333333333V362.6666666666667zM191.61599999999999 64V256L351.616 170.66666666666669L191.61599999999999 64z" />
    <glyph glyph-name="googleplus"
      unicode="&#xF108;"
      horiz-adv-x="512" d=" M248.74666666666667 152.44800000000004L230.65599999999998 167.3386666666667C228.0533333333333 169.94133333333338 225.36533333333333 172.99200000000008 222.59199999999998 176.4693333333334C219.32799999999997 180.11733333333336 217.70666666666665 184.72533333333342 217.70666666666665 190.31466666666677C217.70666666666665 196.0533333333334 219.30666666666664 201.1093333333334 222.464 205.4613333333334C225.152 209.64266666666674 228.096 213.3760000000001 231.2746666666667 216.68266666666676C236.84266666666667 221.54666666666674 242.06933333333336 226.34666666666675 246.99733333333336 231.04000000000008C251.4346666666667 235.73333333333343 255.6586666666667 240.87466666666677 259.62666666666667 246.44266666666675C267.73333333333335 257.9200000000001 271.93600000000004 273.2373333333334 272.25600000000003 292.39466666666675C272.25600000000003 302.84800000000007 271.0826666666667 311.97866666666675 268.73600000000005 319.8080000000001C265.8986666666667 327.6373333333334 262.6346666666667 334.42133333333345 258.9440000000001 340.1600000000001C255.08266666666674 346.26133333333337 251.15733333333338 351.3813333333334 247.1466666666667 355.56266666666676C242.96533333333338 359.5733333333334 239.1893333333334 362.6026666666668 235.84000000000006 364.6933333333334H268.71466666666674L301.6533333333333 384H195.05066666666667C180.90666666666667 384 165.73866666666666 382.336 149.56799999999998 379.05066666666664C133.22666666666666 375.21066666666667 117.48266666666666 367.04 102.33600000000001 354.51733333333334C80.27733333333333 333.09866666666665 69.22666666666666 309.24800000000005 69.22666666666666 282.9653333333333C69.22666666666666 261.20533333333333 77.01333333333334 242.15466666666669 92.58666666666666 225.792C107.45599999999999 208.21333333333334 129.088 199.25333333333333 157.46133333333333 198.912C162.816 198.912 168.53333333333333 199.25333333333333 174.592 199.95733333333334C173.58933333333334 197.16266666666667 172.50133333333332 194.09066666666666 171.328 190.784C169.984 187.62666666666667 169.32266666666666 183.7013333333333 169.32266666666666 178.96533333333332C169.32266666666666 171.09333333333336 171.072 164.35199999999998 174.592 158.74133333333333C177.60000000000002 152.95999999999998 181.01333333333335 147.54133333333334 184.87466666666666 142.464C172.43733333333333 142.12266666666665 156.8 140.56533333333334 137.98399999999998 137.77066666666667C118.976 134.464 100.84266666666667 127.87199999999996 83.584 117.9733333333333C68.20266666666666 108.77866666666665 57.6 98.09066666666666 51.73333333333333 85.93066666666664C45.696 73.77066666666667 42.666666666666664 62.74133333333333 42.666666666666664 52.821333333333314C42.666666666666664 32.4906666666667 51.967999999999996 15.039999999999964 70.54933333333332 0.4480000000000359C88.96 -15.189333333333309 116.84266666666667 -23.16799999999995 154.176 -23.530666666666605C198.78400000000002 -22.826666666666597 232.91733333333332 -12.138666666666609 256.55466666666666 8.576000000000022C279.35999999999996 28.5866666666667 290.7733333333333 51.5626666666667 290.7733333333333 77.50400000000008C290.45333333333326 95.78666666666675 286.2933333333333 110.57066666666674 278.31466666666665 121.89866666666671C269.8453333333333 133.03466666666668 259.9893333333333 143.21066666666667 248.74666666666667 152.44800000000004zM182.12266666666667 213.48266666666666C171.00799999999998 213.48266666666666 161.13066666666668 216.87466666666668 152.512 223.68C143.872 230.48533333333336 136.832 238.7626666666667 131.3706666666667 248.5333333333333C120.064 269.46133333333336 114.43199999999999 289.6213333333333 114.43199999999999 308.97066666666666C114.09066666666666 323.62666666666667 117.952 336.8746666666667 126.01599999999999 348.736C135.59466666666665 360.064 147.60533333333333 365.90933333333334 162.048 366.27200000000005C172.97066666666666 365.9306666666667 182.63466666666665 362.688 191.04 356.5866666666667C199.27466666666663 350.144 205.9093333333333 341.76 210.944 331.4773333333334C221.69599999999997 310.016 227.072 288.74666666666667 227.072 267.648C227.072 262.7626666666667 226.688 256.74666666666667 225.92 249.6C224.64 242.45333333333332 221.73866666666666 235.47733333333332 217.216 228.672C207.85066666666665 219.072 196.16 214.01600000000002 182.12266666666667 213.48266666666666zM237.09866666666667 15.59466666666674C223.872 4.800000000000068 204.67200000000003 -0.7679999999999154 179.5626666666667 -1.1093333333333248C151.55200000000002 -0.7680000000000291 129.49333333333337 5.504000000000019 113.36533333333337 17.685333333333347C96.38400000000003 29.86666666666673 87.9146666666667 45.37600000000009 87.9146666666667 64.17066666666665C87.9146666666667 73.74933333333337 89.85600000000005 81.92000000000002 93.76000000000005 88.72533333333331C97.15200000000004 95.168 101.31200000000004 100.56533333333334 106.24000000000004 104.91733333333332C111.33866666666671 109.09866666666665 116.3306666666667 112.32 121.2586666666667 114.5813333333333C126.1866666666667 116.67200000000003 130.00533333333337 118.22933333333333 132.7146666666667 119.27466666666669C144.25600000000003 122.75200000000001 155.54133333333337 125.26933333333335 166.57066666666668 126.84800000000001C177.7706666666667 127.89333333333332 184.72533333333337 128.23466666666667 187.45600000000002 127.89333333333332C192.04266666666666 127.89333333333332 196.03199999999998 127.72266666666667 199.424 127.38133333333337C219.2853333333333 113.45066666666668 233.87733333333335 101.69600000000003 243.22133333333332 92.11733333333336C252.0533333333333 82.02666666666676 256.46933333333334 70.18666666666672 256.46933333333334 56.59733333333338C256.448 39.89333333333337 250.0053333333333 26.21866666666665 237.09866666666667 15.59466666666674zM469.3333333333333 186.70933333333335H410.624V128H378.73066666666665V186.70933333333335H320V218.60266666666666H378.7093333333333V277.33333333333337H410.60266666666666V218.62400000000002H469.3333333333333V186.70933333333335z" />
    <glyph glyph-name="instagram"
      unicode="&#xF109;"
      horiz-adv-x="512" d=" M384 384H128C92.71466666666666 384 64 355.28533333333337 64 320V64C64 28.714666666666687 92.71466666666666 0 128 0H384C419.2853333333333 0 448 28.714666666666687 448 64V320C448 355.28533333333337 419.2853333333333 384 384 384zM256 256C291.2853333333333 256 320 227.28533333333334 320 192C320 156.7146666666667 291.2853333333333 128 256 128C220.71466666666666 128 192 156.7146666666667 192 192C192 227.28533333333334 220.71466666666666 256 256 256zM405.3333333333333 64C405.3333333333333 52.245333333333406 395.7546666666666 42.666666666666686 384 42.666666666666686H128C116.24533333333332 42.666666666666686 106.66666666666666 52.245333333333406 106.66666666666666 64V213.33333333333334H151.488C150.07999999999998 206.44266666666667 149.33333333333331 199.31733333333335 149.33333333333331 192C149.33333333333331 133.0986666666667 197.09866666666667 85.33333333333337 256 85.33333333333337S362.66666666666663 133.0986666666667 362.66666666666663 192C362.66666666666663 199.31733333333335 361.91999999999996 206.44266666666667 360.512 213.33333333333334H405.3333333333333V64zM405.3333333333333 288C405.3333333333333 282.112 400.55466666666666 277.33333333333337 394.66666666666663 277.33333333333337H352C346.11199999999997 277.33333333333337 341.3333333333333 282.112 341.3333333333333 288V330.6666666666667C341.3333333333333 336.55466666666666 346.11199999999997 341.33333333333337 352 341.33333333333337H394.66666666666663C400.55466666666666 341.33333333333337 405.3333333333333 336.55466666666666 405.3333333333333 330.6666666666667V288z" />
    <glyph glyph-name="lastfm"
      unicode="&#xF10A;"
      horiz-adv-x="512" d=" M230.82666666666665 99.392L215.1893333333333 141.90933333333334C215.1893333333333 141.90933333333334 189.7813333333333 113.5573333333333 151.65866666666665 113.5573333333333C117.93066666666667 113.5573333333333 93.99466666666667 142.89066666666668 93.99466666666667 189.80266666666665C93.99466666666667 249.91999999999996 124.28800000000001 271.424 154.112 271.424C197.12 271.424 210.79466666666667 243.56266666666664 222.52800000000002 207.89333333333332L238.16533333333336 159.01866666666666C253.8026666666667 111.61599999999999 283.136 73.49333333333334 367.67999999999995 73.49333333333334C428.288 73.49333333333334 469.3333333333333 92.0533333333334 469.3333333333333 140.928C469.3333333333333 180.52266666666668 446.848 201.04533333333333 404.8213333333333 210.816L373.5466666666666 217.664C352.0426666666666 222.54933333333332 345.68533333333323 231.33866666666665 345.68533333333323 246.01600000000002C345.68533333333323 262.6346666666667 358.8693333333332 272.4053333333334 380.3946666666666 272.4053333333334C403.8613333333333 272.4053333333334 416.55466666666655 263.616 418.5173333333332 242.58133333333336L467.3919999999999 248.44800000000004C463.4879999999999 292.43733333333336 433.17333333333323 310.50666666666666 383.33866666666654 310.50666666666666C339.3493333333332 310.50666666666666 296.3413333333332 293.88800000000003 296.3413333333332 240.61866666666668C296.3413333333332 207.38133333333334 312.4693333333332 186.36800000000005 353.0239999999999 176.59733333333338L386.2613333333332 168.7893333333334C411.1786666666665 162.92266666666671 419.4986666666665 152.66133333333335 419.4986666666665 138.49600000000004C419.4986666666665 120.42666666666673 401.89866666666654 113.08800000000002 368.66133333333323 113.08800000000002C319.2959999999999 113.08800000000002 298.7733333333332 138.98666666666668 287.03999999999985 174.67733333333337L270.91199999999986 223.55200000000002C250.3893333333332 287.0826666666667 217.64266666666654 310.5493333333334 152.63999999999987 310.5493333333334C80.78933333333333 310.50666666666666 42.666666666666664 265.0666666666667 42.666666666666664 187.84000000000003C42.666666666666664 113.55733333333336 80.78933333333333 73.47199999999998 149.20533333333333 73.47199999999998C204.43733333333333 73.49333333333334 230.82666666666665 99.392 230.82666666666665 99.392L230.82666666666665 99.392z" />
    <glyph glyph-name="link-alt"
      unicode="&#xF210;"
      horiz-adv-x="512" d=" M149.33333333333331 213.33333333333334H362.66666666666663V170.66666666666669H149.33333333333331z M192 128H85.33333333333333V256H192V234.66666666666669H234.66666666666666V256C234.66666666666666 279.5733333333334 215.57333333333332 298.6666666666667 192 298.6666666666667H85.33333333333333C61.76 298.6666666666667 42.666666666666664 279.5733333333334 42.666666666666664 256V128C42.666666666666664 104.42666666666668 61.76 85.33333333333337 85.33333333333333 85.33333333333337H192C215.57333333333332 85.33333333333337 234.66666666666666 104.42666666666668 234.66666666666666 128V149.33333333333337H192V128z M426.66666666666663 298.6666666666667H320C296.4266666666666 298.6666666666667 277.3333333333333 279.5733333333334 277.3333333333333 256V234.66666666666669H320V256H426.66666666666663V128H320V149.33333333333337H277.3333333333333V128C277.3333333333333 104.42666666666668 296.4266666666666 85.33333333333337 320 85.33333333333337H426.66666666666663C450.24 85.33333333333337 469.3333333333333 104.42666666666668 469.3333333333333 128V256C469.3333333333333 279.5733333333334 450.24 298.6666666666667 426.66666666666663 298.6666666666667z" />
    <glyph glyph-name="link"
      unicode="&#xF20F;"
      horiz-adv-x="512" d=" M85.33333333333333 298.6666666666667H298.66666666666663V170.66666666666669H234.66666666666666V128H298.66666666666663C322.24 128 341.3333333333333 147.09333333333336 341.3333333333333 170.66666666666669V298.6666666666667C341.3333333333333 322.24 322.24 341.33333333333337 298.66666666666663 341.33333333333337H85.33333333333333C61.76 341.33333333333337 42.666666666666664 322.24 42.666666666666664 298.6666666666667V170.66666666666669C42.666666666666664 147.09333333333336 61.76 128 85.33333333333333 128H149.33333333333331V170.66666666666669H85.33333333333333V298.6666666666667z M426.66666666666663 256H362.66666666666663V213.33333333333334H426.66666666666663V85.33333333333337H213.33333333333331V213.33333333333334H277.3333333333333V256H213.33333333333331C189.76 256 170.66666666666666 236.9066666666667 170.66666666666666 213.33333333333334V85.33333333333337C170.66666666666666 61.75999999999999 189.76 42.666666666666686 213.33333333333331 42.666666666666686H426.66666666666663C450.24 42.666666666666686 469.3333333333333 61.75999999999999 469.3333333333333 85.33333333333337V213.33333333333334C469.3333333333333 236.9066666666667 450.24 256 426.66666666666663 256z" />
    <glyph glyph-name="linkedin"
      unicode="&#xF10B;"
      horiz-adv-x="512" d=" M106.73066666666666 317.33333333333337C81.13066666666666 317.33333333333337 64.064 336.1066666666667 64.064 358.27200000000005C64.064 381.312 81.13066666666666 399.232 107.584 399.232C134.03733333333332 399.232 150.25066666666666 381.312 151.10399999999998 358.27200000000005C151.10399999999998 336.1066666666667 134.03733333333332 317.33333333333337 106.73066666666666 317.33333333333337zM66.624 284.9066666666667H148.52266666666665V21.26933333333335H66.624V284.9066666666667zM195.45600000000002 284.9066666666667H266.26133333333337L270.528 248.21333333333334H272.23466666666667C282.4746666666667 265.28000000000003 308.928 290.88 353.30133333333333 290.88C407.9146666666666 290.88 448 255.04000000000002 448 177.40800000000002V21.26933333333335H366.10133333333334V167.168C366.10133333333334 201.30133333333333 354.1546666666667 224.34133333333335 324.30933333333337 224.34133333333335C302.1226666666667 224.34133333333335 288.46933333333334 208.98133333333334 282.496 193.62133333333335C279.93600000000004 188.50133333333338 279.93600000000004 180.82133333333337 279.93600000000004 173.16266666666672V21.29066666666671H197.16266666666667V200.46933333333334C197.16266666666667 233.728 196.3093333333333 261.0133333333333 195.45600000000002 284.9066666666667z" />
    <glyph glyph-name="mail"
      unicode="&#xF211;"
      horiz-adv-x="512" d=" M454.4 341.33333333333337L57.749333333333325 341.33333333333337L258.1546666666667 140.94933333333336z M454.25066666666663 42.666666666666686L321.6426666666666 175.2746666666667L258.304 110.61333333333334L192 176.91733333333332L57.749333333333325 42.666666666666686z M469.3333333333333 326.08000000000004L336.55466666666666 190.52800000000002L469.3333333333333 57.74933333333337z M42.666666666666664 57.74933333333337L176.91733333333332 192L42.666666666666664 326.2506666666667z" />
    <glyph glyph-name="menu"
      unicode="&#xF212;"
      horiz-adv-x="512" d=" M64 64H448V106.66666666666669H64V64zM64 170.66666666666669H448V213.33333333333334H64V170.66666666666669zM64 320V277.33333333333337H448V320H64z" />
    <glyph glyph-name="minus"
      unicode="&#xF118;"
      horiz-adv-x="512" d=" M106.66666666666666 213.33333333333334H405.3333333333333V170.66666666666669H106.66666666666666z" />
    <glyph glyph-name="pause"
      unicode="&#xF151;"
      horiz-adv-x="512" d=" M106.66666666666666 21.33333333333337H213.33333333333331V362.6666666666667H106.66666666666666V21.33333333333337zM298.66666666666663 362.6666666666667V21.33333333333337H405.3333333333333V362.6666666666667H298.66666666666663z" />
    <glyph glyph-name="person"
      unicode="&#xF213;"
      horiz-adv-x="512" d=" M170.66666666666666 298.6666666666667C170.66666666666666 251.53836801443896 208.87170134777227 213.33333333333334 256 213.33333333333334C303.1282986522277 213.33333333333334 341.3333333333333 251.53836801443896 341.3333333333333 298.6666666666667C341.3333333333333 345.7949653188944 303.1282986522277 384 256 384C208.87170134777227 384 170.66666666666666 345.7949653188944 170.66666666666666 298.6666666666667z M329.38666666666666 193.96266666666668C308.58666666666664 179.32800000000003 283.3066666666666 170.66666666666669 256 170.66666666666669S203.41333333333333 179.32800000000003 182.61333333333334 193.96266666666668C137.30133333333333 168.32000000000005 106.66666666666666 119.76533333333339 106.66666666666666 64V0H405.3333333333333V64C405.3333333333333 119.76533333333339 374.69866666666667 168.32000000000005 329.38666666666666 193.96266666666668z" />
    <glyph glyph-name="pinterest"
      unicode="&#xF10C;"
      horiz-adv-x="512" d=" M256 405.3333333333333C138.176 405.3333333333333 42.666666666666664 309.824 42.666666666666664 192C42.666666666666664 101.632 98.90133333333333 24.426666666666677 178.2613333333333 -6.655999999999949C176.40533333333332 10.218666666666763 174.71999999999997 36.11733333333336 179.00799999999998 54.54933333333338C182.89066666666668 71.18933333333342 204.03199999999998 160.59733333333338 204.03199999999998 160.59733333333338S197.65333333333334 173.3760000000001 197.65333333333334 192.25600000000006C197.65333333333334 221.9093333333334 214.848 244.07466666666673 236.24533333333332 244.07466666666673C254.44266666666664 244.07466666666673 263.23199999999997 230.40000000000006 263.23199999999997 214.01600000000005C263.23199999999997 195.71200000000005 251.584 168.3413333333334 245.568 142.99733333333336C240.53333333333333 121.74933333333337 256.21333333333337 104.44800000000004 277.16266666666667 104.44800000000004C315.072 104.44800000000004 344.2346666666667 144.42666666666673 344.2346666666667 202.13333333333338C344.2346666666667 253.20533333333339 307.54133333333334 288.9173333333334 255.1253333333334 288.9173333333334C194.43200000000004 288.9173333333334 158.8053333333334 243.39200000000002 158.8053333333334 196.3306666666667C158.8053333333334 178.0053333333334 165.86666666666673 158.336 174.67733333333342 147.64800000000002C176.42666666666676 145.53600000000006 176.68266666666673 143.68000000000006 176.14933333333343 141.52533333333338C174.50666666666666 134.784 170.9013333333333 120.29866666666669 170.19733333333332 117.33333333333337C169.25866666666667 113.42933333333337 167.10399999999998 112.59733333333338 163.072 114.47466666666668C136.42666666666665 126.86933333333332 119.76533333333334 165.824 119.76533333333334 197.12C119.76533333333334 264.4053333333334 168.66133333333335 326.208 260.71466666666663 326.208C334.71999999999997 326.208 392.2346666666666 273.47200000000004 392.2346666666666 203.008C392.2346666666666 129.49333333333334 345.87733333333335 70.31466666666665 281.53599999999994 70.31466666666665C259.9253333333333 70.31466666666665 239.59466666666665 81.536 232.64 94.80533333333335C232.64 94.80533333333335 221.952 54.08000000000004 219.34933333333333 44.096000000000004C214.52799999999996 25.55733333333336 201.53599999999997 2.3466666666666924 192.832 -11.839999999999975C212.79999999999998 -18.00533333333334 234.0053333333333 -21.333333333333314 256 -21.333333333333314C373.82399999999996 -21.333333333333314 469.3333333333333 74.17600000000004 469.3333333333333 192C469.3333333333333 309.824 373.82399999999996 405.3333333333333 256 405.3333333333333z" />
    <glyph glyph-name="play"
      unicode="&#xF152;"
      horiz-adv-x="512" d=" M85.33333333333333 405.3333333333333V-21.333333333333314L448 192L85.33333333333333 405.3333333333333z" />
    <glyph glyph-name="playlist"
      unicode="&#xF153;"
      horiz-adv-x="512" d=" M362.66666666666663 298.6666666666667H42.666666666666664V341.33333333333337H362.66666666666663V298.6666666666667zM362.66666666666663 234.66666666666669H42.666666666666664V192H362.66666666666663V234.66666666666669zM42.666666666666664 85.33333333333337H234.66666666666666V128H42.666666666666664V85.33333333333337zM469.3333333333333 341.33333333333337H426.66666666666663V138.98666666666668C414.08 145.38666666666666 399.616 149.33333333333337 384 149.33333333333337C336.87466666666666 149.33333333333337 298.66666666666663 115.904 298.66666666666663 74.66666666666669S336.87466666666666 0 384 0S469.3333333333333 33.429333333333375 469.3333333333333 74.66666666666669C469.3333333333333 78.31466666666665 469.3333333333333 341.33333333333337 469.3333333333333 341.33333333333337z" />
    <glyph glyph-name="plus"
      unicode="&#xF119;"
      horiz-adv-x="512" d=" M426.66666666666663 213.33333333333334L277.3333333333333 213.33333333333334L277.3333333333333 362.6666666666667L234.66666666666666 362.6666666666667L234.66666666666666 213.33333333333334L85.33333333333333 213.33333333333334L85.33333333333333 170.66666666666669L234.66666666666666 170.66666666666669L234.66666666666666 21.33333333333337L277.3333333333333 21.33333333333337L277.3333333333333 170.66666666666669L426.66666666666663 170.66666666666669z" />
    <glyph glyph-name="rdio"
      unicode="&#xF10D;"
      horiz-adv-x="512" d=" M479.8506666666666 288.704C430.50666666666666 287.2746666666667 370.94399999999996 325.97333333333336 347.8613333333333 340.56533333333334C345.7279999999999 341.90933333333334 343.5306666666666 343.168 341.33333333333326 344.2986666666667C338.9226666666666 345.6426666666667 336.40533333333326 346.88 333.9093333333333 348.13866666666667V205.71733333333336H333.84533333333326C333.9306666666666 192.96 330.15466666666657 179.52000000000004 322.17599999999993 166.6346666666667L321.4719999999999 165.50400000000002C298.4106666666666 128.21333333333337 249.87733333333327 106.47466666666668 204.35199999999992 121.856C160.14933333333326 136.78933333333333 148.33066666666662 179.60533333333336 171.7546666666666 217.47199999999998L172.45866666666657 218.624C195.49866666666657 255.89333333333332 244.03199999999993 277.6533333333333 289.55733333333325 262.272C293.0559999999999 261.09866666666665 296.2986666666666 259.69066666666663 299.39199999999994 258.1333333333333V361.06666666666666C283.09333333333325 365.48266666666666 265.8133333333333 368 247.59466666666663 368C142.208 368 64 289.15200000000004 64 192V190.7413333333334C64 93.58933333333334 141.58933333333334 16 246.31466666666665 16C351.6586666666666 16 429.888 94.84800000000007 429.888 192V193.25866666666667C429.888 200.832 429.3546666666667 208.25599999999997 428.45866666666666 215.57333333333332C483.3066666666667 229.86666666666667 505.9413333333333 286.656 479.8506666666666 288.704z" />
    <glyph glyph-name="restore"
      unicode="&#xF214;"
      horiz-adv-x="512" d=" M277.3333333333333 362.6666666666667C190.464 362.6666666666667 118.69866666666667 297.38666666666666 108.13866666666667 213.33333333333334H42.666666666666664L128 106.66666666666669L213.33333333333331 213.33333333333334H151.25333333333333C161.47199999999998 273.77066666666667 214.03733333333332 320 277.3333333333333 320C347.92533333333336 320 405.3333333333333 262.59200000000004 405.3333333333333 192S347.92533333333336 64 277.3333333333333 64C253.56799999999998 64 231.10399999999998 70.82666666666671 211.34933333333333 82.85866666666669L184.66133333333335 49.49333333333334C212.0533333333333 31.55200000000002 243.73333333333335 21.33333333333337 277.3333333333333 21.33333333333337C371.43466666666666 21.33333333333337 448 97.89866666666666 448 192S371.43466666666666 362.6666666666667 277.3333333333333 362.6666666666667z" />
    <glyph glyph-name="reverbnation"
      unicode="&#xF10E;"
      horiz-adv-x="512" d=" M426.66666666666663 384.02133333333336H85.33333333333333C73.55733333333333 384.02133333333336 64 374.464 64 362.688V21.35466666666673C64 9.57866666666672 73.55733333333333 0.021333333333359406 85.33333333333333 0.021333333333359406H426.66666666666663C438.44266666666664 0.021333333333359406 448 9.57866666666672 448 21.35466666666673V362.68800000000005C448 374.464 438.44266666666664 384.02133333333336 426.66666666666663 384.02133333333336zM344.6186666666666 74.68800000000005L256 132.33066666666667L167.38133333333332 74.66666666666669L195.34933333333333 172.33066666666667L119.63733333333334 233.42933333333335H218.58133333333333L256 330.688L293.8666666666667 233.4506666666667H392.384L312.36266666666666 172.35200000000003L344.6186666666666 74.68800000000005z" />
    <glyph glyph-name="rewind"
      unicode="&#xF154;"
      horiz-adv-x="512" d=" M448 320V64L256 192L448 320zM64 192L256 64V320L64 192z" />
    <glyph glyph-name="share-alt"
      unicode="&#xF110;"
      horiz-adv-x="512" d=" M341.3333333333333 192C341.3333333333333 144.8746666666667 303.1253333333333 106.66666666666669 256 106.66666666666669S170.66666666666666 144.8746666666667 170.66666666666666 192S208.87466666666666 277.33333333333337 256 277.33333333333337S341.3333333333333 239.12533333333334 341.3333333333333 192zM469.3333333333333 170.66666666666669H384H382.08C371.88266666666664 110.22933333333333 319.296 64 256 64C220.69333333333333 64 189.05599999999998 78.72000000000003 165.90933333333334 101.9093333333334L135.46666666666664 71.4666666666667C166.33599999999998 40.57600000000002 208.8533333333333 21.33333333333337 256 21.33333333333337C327.5946666666666 21.33333333333337 388.69333333333327 65.49333333333334 413.9946666666666 128H469.3333333333333V170.66666666666669zM256 320C291.3066666666666 320 322.94399999999996 305.28000000000003 346.0906666666666 282.09066666666666L376.5333333333333 312.53333333333336C345.664 343.424 303.14666666666665 362.6666666666667 256 362.6666666666667C184.40533333333332 362.6666666666667 123.30666666666667 318.50666666666666 98.00533333333334 256H42.666666666666664V213.33333333333334H128H129.92C140.13866666666667 273.77066666666667 192.70399999999998 320 256 320z" />
    <glyph glyph-name="share"
      unicode="&#xF10F;"
      horiz-adv-x="512" d=" M362.66666666666663 128C347.2213333333333 128 333.2266666666667 122.30400000000003 322.176 113.17333333333335L212.0533333333333 179.24266666666665C212.8853333333333 183.38133333333337 213.33333333333331 187.62666666666667 213.33333333333331 192S212.8853333333333 200.61866666666668 212.0533333333333 204.75733333333335L322.176 270.8266666666667C333.22666666666663 261.696 347.2213333333333 256 362.66666666666663 256C398.01599999999996 256 426.66666666666663 284.65066666666667 426.66666666666663 320S398.01599999999996 384 362.66666666666663 384S298.66666666666663 355.34933333333333 298.66666666666663 320C298.66666666666663 315.62666666666667 299.11466666666666 311.3813333333334 299.94666666666666 307.24266666666665L189.82399999999998 241.17333333333335C178.77333333333334 250.30400000000003 164.77866666666665 256 149.33333333333331 256C113.984 256 85.33333333333333 227.34933333333333 85.33333333333333 192S113.984 128 149.33333333333331 128C164.77866666666665 128 178.7733333333333 133.69600000000003 189.82399999999998 142.8266666666667L299.9466666666666 76.75733333333335C299.11466666666666 72.61866666666668 298.66666666666663 68.37333333333333 298.66666666666663 64C298.66666666666663 28.650666666666666 327.3173333333333 0 362.66666666666663 0S426.66666666666663 28.650666666666666 426.66666666666663 64S398.01599999999996 128 362.66666666666663 128z" />
    <glyph glyph-name="skip-ahead"
      unicode="&#xF155;"
      horiz-adv-x="512" d=" M106.66666666666666 42.666666666666686V341.33333333333337L320 192L106.66666666666666 42.666666666666686zM405.3333333333333 341.33333333333337H341.3333333333333V42.666666666666686H405.3333333333333V341.33333333333337z" />
    <glyph glyph-name="skip-back"
      unicode="&#xF156;"
      horiz-adv-x="512" d=" M405.3333333333333 341.33333333333337V42.666666666666686L192 192L405.3333333333333 341.33333333333337zM106.66666666666666 42.666666666666686H170.66666666666666V341.33333333333337H106.66666666666666V42.666666666666686z" />
    <glyph glyph-name="soundcloud"
      unicode="&#xF111;"
      horiz-adv-x="512" d=" M234.19733333333332 192.02133333333333C234.36799999999997 166.6773333333333 235.2 141.35466666666667 233.856 122.34666666666669C232.66133333333335 103.33866666666671 230.39999999999998 90.68799999999999 230.39999999999998 90.68799999999999C229.76 87.14666666666665 226.3893333333333 84.79999999999995 222.84799999999998 85.44C220.096 85.93066666666664 218.0693333333333 88.10666666666668 217.59999999999997 90.68799999999999C217.59999999999997 90.68799999999999 215.33866666666665 103.36000000000001 214.14399999999995 122.34666666666664C212.77866666666662 141.35466666666662 213.63199999999998 166.6773333333333 213.80266666666662 192.0213333333333C213.84533333333331 217.3653333333333 215.10399999999996 242.68799999999996 215.7653333333333 261.69599999999997C216.8533333333333 280.6826666666667 217.59999999999997 293.3546666666667 217.59999999999997 293.3546666666667C217.8133333333333 296.896 220.84266666666662 299.584 224.38399999999996 299.3706666666667C227.6693333333333 299.1786666666667 230.22933333333327 296.55466666666666 230.39999999999998 293.3546666666667C230.39999999999998 293.3546666666667 231.14666666666665 280.6826666666667 232.25599999999997 261.696C232.91733333333332 242.688 234.15466666666669 217.36533333333335 234.19733333333332 192.02133333333333zM189.67466666666667 243.6906666666667C188.69333333333333 260.6933333333334 187.73333333333335 272.02133333333336 187.73333333333335 272.02133333333336C187.47733333333332 275.072 185.0453333333333 277.6106666666667 181.86666666666667 277.8666666666667C178.34666666666664 278.18666666666667 175.232 275.5626666666667 174.9333333333333 272.02133333333336C174.9333333333333 272.02133333333336 173.9733333333333 260.6933333333333 172.992 243.6906666666667C172.288 226.688 171.11466666666666 204.032 171.072 181.35466666666667C170.60266666666666 158.69866666666667 170.51733333333334 136.02133333333336 171.73333333333335 119.01866666666666C172.75733333333335 102.01600000000002 174.93333333333334 90.68799999999999 174.93333333333334 90.68799999999999C175.424 88.14933333333329 177.40800000000002 86.01599999999996 180.11733333333336 85.50400000000002C183.6586666666667 84.82133333333331 187.07200000000003 87.1466666666667 187.73333333333335 90.68799999999999C187.73333333333335 90.68799999999999 189.88800000000003 102.01599999999996 190.93333333333334 119.0186666666666C192.14933333333335 136.0213333333333 192.06400000000002 158.6773333333333 191.59466666666668 181.35466666666662C191.53066666666666 204.032 190.35733333333332 226.688 189.67466666666667 243.6906666666667zM147.00799999999998 243.6906666666667C146.02666666666664 260.6933333333334 145.06666666666666 272.02133333333336 145.06666666666666 272.02133333333336C144.81066666666666 275.072 142.37866666666667 277.6106666666667 139.2 277.8666666666667C135.68 278.18666666666667 132.56533333333334 275.5626666666667 132.26666666666665 272.02133333333336C132.26666666666665 272.02133333333336 131.30666666666667 260.6933333333333 130.32533333333333 243.6906666666667C129.62133333333333 226.688 128.44799999999998 204.032 128.40533333333332 181.35466666666667C127.93599999999999 158.69866666666667 127.85066666666667 136.02133333333336 129.06666666666666 119.01866666666666C130.09066666666666 102.01600000000002 132.26666666666665 90.68799999999999 132.26666666666665 90.68799999999999C132.75733333333332 88.14933333333329 134.74133333333333 86.01599999999996 137.45066666666668 85.50400000000002C140.99200000000002 84.82133333333331 144.40533333333332 87.1466666666667 145.06666666666666 90.68799999999999C145.06666666666666 90.68799999999999 147.22133333333335 102.01599999999996 148.26666666666668 119.0186666666666C149.4826666666667 136.0213333333333 149.39733333333334 158.6773333333333 148.928 181.35466666666662C148.86399999999998 204.032 147.69066666666666 226.688 147.00799999999998 243.6906666666667zM104.59733333333332 207.68C103.50933333333333 220.69333333333336 102.39999999999999 229.35466666666667 102.39999999999999 229.35466666666667C102.03733333333332 232.192 99.79733333333333 234.53866666666667 96.832 234.92266666666666C93.29066666666667 235.39200000000002 90.048 232.89600000000002 89.6 229.35466666666667C89.6 229.35466666666667 88.46933333333334 220.69333333333333 87.40266666666668 207.68C86.48533333333333 194.688 85.632 177.344 85.54666666666668 160.02133333333336C85.22666666666667 142.69866666666667 85.71733333333334 125.35466666666667 86.95466666666667 112.36266666666666C87.89333333333333 99.34933333333333 89.6 90.68800000000005 89.6 90.68800000000005C90.09066666666666 88.17066666666676 92.07466666666666 86.05866666666674 94.74133333333333 85.54666666666674C98.28266666666667 84.86400000000003 101.69599999999998 87.16800000000006 102.39999999999999 90.68800000000005C102.39999999999999 90.68800000000005 104.08533333333332 99.34933333333333 105.06666666666666 112.36266666666671C106.30399999999999 125.35466666666673 106.79466666666667 142.69866666666672 106.47466666666665 160.02133333333336C106.368 177.36533333333335 105.51466666666666 194.688 104.59733333333332 207.68zM59.73333333333333 208.02133333333333C59.263999999999996 210.60266666666666 57.237333333333325 212.77866666666668 54.48533333333333 213.26933333333335C50.943999999999996 213.90933333333334 47.57333333333333 211.56266666666667 46.93333333333332 208.02133333333333C46.93333333333332 208.02133333333333 45.73866666666666 201.36533333333335 44.672 191.36C43.647999999999996 181.35466666666667 42.943999999999996 168.02133333333336 42.81599999999999 154.688C42.709333333333326 141.35466666666667 43.17866666666666 128.02133333333336 44.37333333333332 118.01600000000002C45.35466666666665 108.01066666666668 46.93333333333332 101.35466666666673 46.93333333333332 101.35466666666673C47.487999999999985 99.00800000000004 49.32266666666666 97.04533333333336 51.81866666666666 96.4693333333334C55.35999999999999 95.63733333333334 58.901333333333326 97.83466666666675 59.73333333333333 101.35466666666673C59.73333333333333 101.35466666666673 61.29066666666666 108.01066666666668 62.29333333333333 118.01600000000008C63.488 128.02133333333336 63.97866666666667 141.35466666666673 63.85066666666666 154.68800000000005C63.72266666666667 168.02133333333336 63.01866666666666 181.35466666666673 61.99466666666666 191.36C60.928 201.36533333333335 59.73333333333333 208.02133333333333 59.73333333333333 208.02133333333333zM14.911999999999999 186.688C14.463999999999999 187.776 13.589333333333332 188.69333333333333 12.415999999999999 189.18400000000003C10.069333333333333 190.16533333333336 7.359999999999999 189.05600000000004 6.378666666666666 186.688C6.378666666666666 186.688 4.714666666666666 182.6773333333333 3.093333333333333 176.6826666666667C1.92 170.688 0.23466666666666627 162.688 0.14933333333333287 154.688C-0.36266666666666714 146.688 0.4053333333333329 138.688 2.197333333333333 132.69333333333333C3.9466666666666663 126.69866666666667 6.378666666666666 122.68799999999999 6.378666666666666 122.68799999999999C6.784 122.048 7.338666666666666 121.45066666666668 8.042666666666666 121.024C10.389333333333333 119.57333333333338 13.482666666666667 120.32000000000005 14.912 122.68799999999999C14.912 122.68799999999999 17.365333333333332 126.69866666666667 19.093333333333334 132.69333333333333C20.88533333333333 138.688 21.653333333333336 146.688 21.141333333333332 154.688C21.055999999999997 162.688 19.370666666666665 170.688 18.197333333333333 176.6826666666667C16.576 182.69866666666667 14.911999999999999 186.688 14.911999999999999 186.688zM508.9493333333333 172.35200000000003C503.14666666666665 191.70133333333337 487.9146666666666 207.70133333333337 468.8213333333333 214.35733333333334C451.34933333333333 220.43733333333336 434.26133333333325 219.28533333333334 419.77599999999995 213.22666666666666C414.4853333333333 273.152 364.224 321.856 302.912 321.856C290.02666666666664 321.856 273.00266666666664 317.0773333333333 261.29066666666665 310.976C257.91999999999996 309.184 256 305.5146666666667 256 301.7386666666667V96C256 90.11200000000002 260.75733333333335 85.33333333333337 266.6453333333333 85.33333333333337C306.4746666666666 85.31200000000001 444.48 85.35466666666673 445.504 85.35466666666673C488.87466666666666 85.35466666666673 522.5386666666666 126.89066666666668 508.9493333333333 172.35200000000003z" />
    <glyph glyph-name="spotify"
      unicode="&#xF112;"
      horiz-adv-x="512" d=" M256 405.3333333333333C138.176 405.3333333333333 42.666666666666664 309.824 42.666666666666664 192.02133333333333C42.666666666666664 74.1973333333334 138.176 -21.333333333333314 256 -21.333333333333314C373.8026666666666 -21.333333333333314 469.3333333333333 74.1973333333334 469.3333333333333 192.02133333333333C469.3333333333333 309.824 373.8026666666666 405.3333333333333 256 405.3333333333333zM353.83466666666664 97.64266666666674C349.9946666666666 91.3706666666667 341.82399999999996 89.38666666666671 335.55199999999996 93.22666666666669C285.4613333333333 123.84000000000003 222.39999999999998 130.77333333333337 148.15999999999997 113.81333333333339C140.99199999999996 112.1706666666667 133.86666666666662 116.65066666666667 132.2453333333333 123.79733333333337C130.6026666666666 130.94400000000007 135.08266666666663 138.09066666666672 142.22933333333327 139.71200000000005C223.48799999999997 158.2933333333334 293.2053333333333 150.2933333333334 349.4399999999999 115.92533333333336C355.69066666666663 112.10666666666668 357.6746666666666 103.91466666666668 353.83466666666664 97.64266666666674zM379.9466666666666 155.73333333333335C375.1253333333333 147.904 364.8853333333333 145.45066666666673 357.0773333333333 150.2506666666667C299.7333333333333 185.49333333333334 212.33066666666664 195.69066666666671 144.49066666666664 175.1253333333334C135.67999999999998 172.45866666666672 126.39999999999999 177.42933333333337 123.71199999999999 186.1973333333334C121.06666666666666 194.98666666666674 126.03733333333332 204.2666666666667 134.8053333333333 206.93333333333337C212.28799999999995 230.4426666666667 308.60799999999995 219.0506666666667 374.46399999999994 178.58133333333336C382.29333333333335 173.78133333333335 384.74666666666667 163.54133333333334 379.9466666666666 155.73333333333335zM382.1866666666666 216.21333333333334C313.4293333333333 257.0666666666667 200 260.82133333333337 134.35733333333332 240.89600000000002C123.81866666666667 237.696 112.66133333333335 243.648 109.48266666666666 254.18666666666667C106.26133333333333 264.72533333333337 112.21333333333332 275.86133333333333 122.75199999999998 279.0826666666667C198.12266666666665 301.952 323.39199999999994 297.536 402.55999999999995 250.53866666666667C412.0319999999999 244.9066666666667 415.1466666666666 232.66133333333335 409.53599999999994 223.21066666666667C403.904 213.71733333333336 391.63733333333334 210.58133333333336 382.1866666666666 216.21333333333334z" />
    <glyph glyph-name="stop"
      unicode="&#xF157;"
      horiz-adv-x="512" d=" M106.66666666666666 341.33333333333337H405.3333333333333V42.666666666666686H106.66666666666666V341.33333333333337z" />
    <glyph glyph-name="tumblr"
      unicode="&#xF113;"
      horiz-adv-x="512" d=" M288.128 -2.6666666666666288C216.128 -2.6666666666666288 184.064 29.397333333333336 184.064 93.33333333333337V213.33333333333334H128V269.39733333333334C176 285.33333333333337 208.064 309.33333333333337 216.128 381.33333333333337H272V285.33333333333337H360.128V213.33333333333334H272V117.33333333333337C272 77.39733333333334 280.06399999999996 61.26933333333335 320 61.26933333333335C344 61.26933333333335 376.06399999999996 77.39733333333334 376.06399999999996 77.39733333333334V18.154666666666685C376.06399999999996 18.154666666666685 344 -2.6666666666666288 288.128 -2.6666666666666288z" />
    <glyph glyph-name="twitter"
      unicode="&#xF114;"
      horiz-adv-x="512" d=" M469.3333333333333 324.3306666666667C453.63199999999995 317.37600000000003 436.7573333333333 312.66133333333335 419.05066666666664 310.5493333333334C437.12 321.38666666666666 451.00800000000004 338.5386666666667 457.53599999999994 358.976C440.6186666666666 348.94933333333336 421.888 341.6533333333333 401.9413333333333 337.728C385.984 354.73066666666665 363.2213333333333 365.376 338.048 365.376C289.70666666666665 365.376 250.51733333333334 326.18666666666667 250.51733333333334 277.8453333333333C250.51733333333334 270.976 251.2853333333333 264.2986666666667 252.77866666666665 257.8986666666667C180.0533333333333 261.5466666666667 115.54133333333334 296.384 72.36266666666666 349.3546666666667C64.832 336.4266666666667 60.522666666666666 321.38666666666666 60.522666666666666 305.344C60.522666666666666 274.9653333333333 75.96799999999999 248.192 99.45599999999999 232.49066666666667C85.12 232.93866666666668 71.616 236.864 59.81866666666666 243.43466666666666C59.81866666666666 243.072 59.81866666666666 242.70933333333332 59.81866666666666 242.32533333333333C59.81866666666666 199.91466666666668 89.984 164.52266666666668 130.048 156.50133333333338C122.70933333333332 154.49600000000004 114.96533333333333 153.42933333333337 106.98666666666668 153.42933333333337C101.35466666666667 153.42933333333337 95.87200000000001 153.98400000000004 90.51733333333334 155.00800000000004C101.65333333333334 120.23466666666667 133.99466666666666 94.93333333333334 172.288 94.20800000000003C142.336 70.74133333333333 104.57600000000002 56.74666666666667 63.57333333333334 56.74666666666667C56.51200000000001 56.74666666666667 49.53600000000001 57.15199999999999 42.688 57.96266666666668C81.42933333333333 33.13066666666663 127.44533333333334 18.645333333333326 176.87466666666666 18.645333333333326C337.87733333333335 18.645333333333326 425.9413333333333 152.0213333333333 425.9413333333333 267.712C425.9413333333333 271.50933333333336 425.856 275.28533333333337 425.68533333333335 279.03999999999996C442.752 291.34933333333333 457.59999999999997 306.7733333333333 469.3333333333333 324.3306666666667z" />
    <glyph glyph-name="vimeo"
      unicode="&#xF115;"
      horiz-adv-x="512" d=" M469.11999999999995 291.7546666666667C467.2213333333333 249.96266666666668 438.2079999999999 192.74666666666667 382.1013333333333 120.12800000000004C324.09599999999995 44.26666666666665 275.0079999999999 6.336000000000013 234.85866666666658 6.336000000000013C210.00533333333328 6.336000000000013 188.94933333333324 29.418666666666695 171.7546666666666 75.64800000000002C160.27733333333325 117.99466666666666 148.7999999999999 160.34133333333335 137.32266666666658 202.70933333333332C124.56533333333334 248.87466666666668 110.86933333333333 272 96.23466666666667 272C93.03466666666665 272 81.87733333333333 265.23733333333337 62.74133333333333 251.776L42.666666666666664 277.78133333333335C63.72266666666667 296.4053333333334 84.50133333333332 315.02933333333334 104.93866666666665 333.6533333333333C133.01333333333332 358.0586666666667 154.112 370.90133333333335 168.14933333333332 372.2026666666667C201.36533333333333 375.4026666666667 221.80266666666665 352.576 229.46133333333333 303.68C237.73866666666666 250.94400000000002 243.47733333333332 218.13333333333333 246.71999999999997 205.29066666666665C256.29866666666663 161.536 266.816 139.66933333333333 278.33599999999996 139.66933333333333C287.27466666666663 139.66933333333333 300.67199999999997 153.856 318.5706666666666 182.2506666666667C336.4479999999999 210.64533333333333 346.0053333333333 232.23466666666667 347.3066666666666 247.08266666666665C349.84533333333326 271.5733333333333 340.2879999999999 283.86133333333333 318.5706666666666 283.86133333333333C308.352 283.86133333333333 297.83466666666664 281.49333333333334 286.99733333333324 276.8213333333333C307.96799999999996 345.91999999999996 348.0319999999999 379.4986666666666 407.16799999999995 377.57866666666666C450.9866666666667 376.2986666666667 471.6586666666667 347.6906666666667 469.11999999999995 291.7546666666667z" />
    <glyph glyph-name="volume-off"
      unicode="&#xF158;"
      horiz-adv-x="512" d=" M298.66666666666663 245.33333333333334V277.33333333333337C345.792 277.33333333333337 384 239.12533333333334 384 192C384 174.6346666666667 378.752 158.50666666666666 369.83466666666664 145.024L346.32533333333333 168.53333333333336C349.8453333333333 175.63733333333334 352 183.53066666666666 352 192C352 221.41866666666667 328.06399999999996 245.33333333333334 298.66666666666663 245.33333333333334zM437.3333333333333 192C437.3333333333333 159.93600000000004 426.2826666666666 130.45333333333338 407.936 106.92266666666671L430.82666666666665 84.03200000000004C454.8693333333333 113.45066666666668 469.3333333333333 151.04000000000002 469.3333333333333 192C469.3333333333333 286.2506666666667 392.9173333333333 362.6666666666667 298.66666666666663 362.6666666666667V330.6666666666667C375.1253333333333 330.6666666666667 437.3333333333333 268.45866666666666 437.3333333333333 192zM256 384L193.42933333333332 321.4293333333334L256 258.8586666666667V384zM42.666666666666664 382.69866666666667L148.69333333333333 276.672L128 256H42.666666666666664V128H128L256 0V169.36533333333335L358.08 67.28533333333337C340.0106666666667 58.624000000000024 320.0213333333333 53.33333333333337 298.66666666666663 53.33333333333337V21.33333333333337C329.00266666666664 21.33333333333337 357.43999999999994 29.35466666666673 382.12266666666665 43.26400000000001L446.69866666666667 -21.333333333333314L469.3333333333333 1.3013333333333321L65.30133333333333 405.3333333333333L42.666666666666664 382.69866666666667z" />
    <glyph glyph-name="volume-on"
      unicode="&#xF159;"
      horiz-adv-x="512" d=" M298.66666666666663 106.66666666666669V138.66666666666669C328.06399999999996 138.66666666666669 352 162.60266666666666 352 192C352 221.41866666666667 328.06399999999996 245.33333333333334 298.66666666666663 245.33333333333334V277.33333333333337C345.792 277.33333333333337 384 239.12533333333334 384 192C384 144.8746666666667 345.792 106.66666666666669 298.66666666666663 106.66666666666669zM298.66666666666663 362.6666666666667V330.6666666666667C375.1253333333333 330.6666666666667 437.3333333333333 268.45866666666666 437.3333333333333 192S375.1253333333333 53.33333333333337 298.66666666666663 53.33333333333337V21.33333333333337C392.9173333333333 21.33333333333337 469.3333333333333 97.74933333333337 469.3333333333333 192S392.9173333333333 362.6666666666667 298.66666666666663 362.6666666666667zM42.666666666666664 256V128H128L256 0V384L128 256H42.666666666666664z" />
    <glyph glyph-name="wordpress"
      unicode="&#xF116;"
      horiz-adv-x="512" d=" M256 405.3333333333333C138.368 405.3333333333333 42.666666666666664 309.632 42.666666666666664 192C42.666666666666664 74.36800000000005 138.368 -21.333333333333314 256 -21.333333333333314C373.63199999999995 -21.333333333333314 469.3333333333333 74.36800000000005 469.3333333333333 192C469.3333333333333 309.632 373.63199999999995 405.3333333333333 256 405.3333333333333zM64.192 192C64.192 219.81866666666667 70.16533333333332 246.20800000000003 80.81066666666666 270.0586666666667L172.3093333333333 19.370666666666693C108.30933333333333 50.47466666666668 64.192 116.096 64.192 192zM256 0.19200000000000728C237.184 0.19200000000000728 219.00799999999998 2.9440000000000737 201.81333333333333 8L259.3706666666667 175.23200000000003L318.31466666666665 13.717333333333386C318.69866666666667 12.778666666666709 319.18933333333337 11.903999999999996 319.68 11.07200000000006C299.75466666666665 4.0533333333333985 278.336 0.19200000000000728 256 0.19200000000000728zM282.432 281.9413333333333C293.97333333333336 282.5386666666667 304.384 283.7546666666667 304.384 283.7546666666667C314.70933333333335 284.9706666666667 313.49333333333334 300.16 303.168 299.5626666666667C303.168 299.5626666666667 272.1066666666667 297.1306666666667 252.05333333333334 297.1306666666667C233.21600000000004 297.1306666666667 201.536 299.5626666666667 201.536 299.5626666666667C191.1893333333333 300.16 189.9733333333333 284.37333333333333 200.29866666666663 283.7546666666667C200.29866666666663 283.7546666666667 210.09066666666664 282.5386666666667 220.41599999999997 281.9413333333333L250.30399999999997 200.06400000000002L208.31999999999996 74.17600000000004L138.47466666666665 281.9413333333333C150.03733333333332 282.5386666666667 160.42666666666665 283.7546666666667 160.42666666666665 283.7546666666667C170.75199999999998 284.97066666666666 169.536 300.16 159.21066666666667 299.5626666666667C159.21066666666667 299.5626666666667 128.14933333333332 297.1306666666667 108.096 297.1306666666667C104.49066666666667 297.1306666666667 100.24533333333332 297.216 95.744 297.36533333333335C130.048 349.4186666666667 188.992 383.808 256 383.808C305.9413333333333 383.808 351.4026666666667 364.7146666666667 385.5146666666666 333.44C384.6826666666666 333.48266666666666 383.8719999999999 333.58933333333334 383.03999999999996 333.58933333333334C364.20266666666663 333.58933333333334 350.8266666666666 317.18399999999997 350.8266666666666 299.54133333333334C350.8266666666666 283.73333333333335 359.9573333333333 270.3573333333334 369.6639999999999 254.54933333333332C376.95999999999987 241.77066666666664 385.47199999999987 225.3653333333333 385.47199999999987 201.64266666666663C385.47199999999987 185.2373333333333 379.1573333333332 166.18666666666667 370.8799999999999 139.64799999999997L351.7439999999999 75.73333333333329L282.432 281.9413333333333zM424.29866666666663 284.03200000000004C439.2746666666667 256.704 447.78666666666663 225.36533333333335 447.78666666666663 192.02133333333336C447.78666666666663 121.25866666666673 409.4293333333333 59.47733333333338 352.4266666666666 26.24000000000001L411.0079999999999 195.62666666666672C421.952 222.99733333333336 425.59999999999997 244.86400000000003 425.59999999999997 264.32000000000005C425.59999999999997 271.36 425.1306666666667 277.90933333333334 424.29866666666663 284.03200000000004z" />
    <glyph glyph-name="youtube"
      unicode="&#xF117;"
      horiz-adv-x="512" d=" M465.06666666666666 277.312C465.06666666666666 277.312 460.90666666666664 306.70933333333335 448.1066666666666 319.6586666666667C431.87199999999996 336.66133333333335 413.69599999999997 336.74666666666667 405.3546666666666 337.72800000000007C345.6426666666666 342.0373333333334 256.08533333333327 342.0373333333334 256.08533333333327 342.0373333333334H255.89333333333326C255.89333333333326 342.0373333333334 166.33599999999993 342.0373333333334 106.62399999999994 337.72800000000007C98.30399999999999 336.7253333333333 80.12799999999999 336.66133333333335 63.89333333333333 319.6586666666667C51.093333333333334 306.70933333333335 46.93333333333334 277.312 46.93333333333334 277.312S42.666666666666664 242.77333333333337 42.666666666666664 208.25600000000003V175.89333333333337C42.666666666666664 141.37600000000003 46.93333333333334 106.83733333333339 46.93333333333334 106.83733333333339S51.093333333333334 77.44000000000005 63.89333333333333 64.4906666666667C80.128 47.488 101.44 48.04266666666666 110.93333333333334 46.25066666666669C145.06666666666666 42.98666666666668 256 41.96266666666668 256 41.96266666666668S345.664 42.090666666666664 405.3546666666667 46.42133333333334C413.696 47.42399999999998 431.87199999999996 47.5093333333333 448.1066666666667 64.4906666666667C460.90666666666675 77.44 465.0666666666667 106.83733333333333 465.0666666666667 106.83733333333333S469.33333333333337 141.35466666666667 469.33333333333337 175.89333333333332V208.25599999999997C469.3333333333333 242.77333333333337 465.06666666666666 277.312 465.06666666666666 277.312zM211.94666666666666 136.66133333333335L211.9253333333333 256.53333333333336L327.2106666666666 196.37333333333333L211.94666666666666 136.66133333333335z" />
  </font>
</defs>
</svg>
