<?xml version="1.0" encoding="utf-8"?>
<!-- Generator: Adobe Illustrator 18.1.1, SVG Export Plug-In . SVG Version: 6.00 Build 0)  -->
<svg version="1.1" xmlns="http://www.w3.org/2000/svg" xmlns:xlink="http://www.w3.org/1999/xlink" x="0px" y="0px"
	 viewBox="0 0 24 24" enable-background="new 0 0 24 24" xml:space="preserve">
<g id="bounds" display="none">
	<rect display="inline" fill="none" width="24" height="24"/>
</g>
<g id="Layer_2">
	<path d="M12,2C6.477,2,2,6.477,2,11.999C2,17.522,6.477,22,12,22c5.522,0,10-4.478,10-10.001C22,6.477,17.522,2,12,2z
		 M16.586,16.423c-0.18,0.294-0.563,0.387-0.857,0.207c-2.348-1.435-5.304-1.76-8.784-0.965c-0.336,0.077-0.67-0.133-0.746-0.468
		c-0.077-0.335,0.133-0.67,0.468-0.746c3.809-0.871,7.077-0.496,9.713,1.115C16.673,15.745,16.766,16.129,16.586,16.423z
		 M17.81,13.7c-0.226,0.367-0.706,0.482-1.072,0.257c-2.688-1.652-6.785-2.13-9.965-1.166c-0.413,0.125-0.848-0.108-0.974-0.519
		c-0.124-0.412,0.109-0.847,0.52-0.972c3.632-1.102,8.147-0.568,11.234,1.329C17.92,12.854,18.035,13.334,17.81,13.7z
		 M17.915,10.865C14.692,8.95,9.375,8.774,6.298,9.708c-0.494,0.15-1.017-0.129-1.166-0.623C4.981,8.591,5.26,8.069,5.754,7.918
		c3.533-1.072,9.405-0.865,13.116,1.338c0.444,0.264,0.59,0.838,0.327,1.281C18.933,10.982,18.358,11.129,17.915,10.865z"/>
</g>
</svg>
