<?xml version="1.0" encoding="utf-8"?>
<!-- Generator: Adobe Illustrator 18.1.1, SVG Export Plug-In . SVG Version: 6.00 Build 0)  -->
<svg version="1.1" xmlns="http://www.w3.org/2000/svg" xmlns:xlink="http://www.w3.org/1999/xlink" x="0px" y="0px"
	 viewBox="0 0 24 24" enable-background="new 0 0 24 24" xml:space="preserve">
<g id="bounds" display="none">
	<rect display="inline" fill="none" width="24" height="24"/>
</g>
<g id="Layer_2">
	<path d="M10.82,16.341l-0.733-1.993c0,0-1.191,1.329-2.978,1.329c-1.581,0-2.703-1.375-2.703-3.574c0-2.818,1.42-3.826,2.818-3.826
		c2.016,0,2.657,1.306,3.207,2.978l0.733,2.291c0.733,2.222,2.108,4.009,6.071,4.009c2.841,0,4.765-0.87,4.765-3.161
		c0-1.856-1.054-2.818-3.024-3.276l-1.466-0.321c-1.008-0.229-1.306-0.641-1.306-1.329c0-0.779,0.618-1.237,1.627-1.237
		c1.1,0,1.695,0.412,1.787,1.398l2.291-0.275c-0.183-2.062-1.604-2.909-3.94-2.909c-2.062,0-4.078,0.779-4.078,3.276
		c0,1.558,0.756,2.543,2.657,3.001l1.558,0.366c1.168,0.275,1.558,0.756,1.558,1.42c0,0.847-0.825,1.191-2.383,1.191
		c-2.314,0-3.276-1.214-3.826-2.887l-0.756-2.291c-0.962-2.978-2.497-4.078-5.544-4.078C3.787,6.445,2,8.575,2,12.195
		c0,3.482,1.787,5.361,4.994,5.361C9.583,17.555,10.82,16.341,10.82,16.341L10.82,16.341z"/>
</g>
</svg>
