<?xml version="1.0" encoding="UTF-8"?>
<svg id="Layer_2" xmlns="http://www.w3.org/2000/svg" viewBox="0 0 24 24">
	<path d="M6.9,5.14c2.06,1.55,4.28,4.69,5.1,6.38.82-1.69,3.03-4.83,5.1-6.38,1.49-1.12,3.9-1.98,3.9.77,0,.55-.32,4.62-.5,5.28-.64,2.3-2.98,2.88-5.07,2.53,3.64.62,4.57,2.67,2.57,4.72-3.8,3.9-5.46-.98-5.89-2.23-.08-.23-.11-.34-.12-.25,0-.09-.04.02-.12.25-.43,1.25-2.09,6.12-5.89,2.23-2-2.05-1.07-4.1,2.57-4.72-2.08.35-4.42-.23-5.07-2.53-.18-.66-.5-4.73-.5-5.28,0-2.75,2.41-1.89,3.9-.77h0Z"/>
</svg>
