<?xml version="1.0" encoding="utf-8"?>
<!-- Generator: Adobe Illustrator 18.1.1, SVG Export Plug-In . SVG Version: 6.00 Build 0)  -->
<svg version="1.1" xmlns="http://www.w3.org/2000/svg" xmlns:xlink="http://www.w3.org/1999/xlink" x="0px" y="0px"
	 viewBox="0 0 24 24" enable-background="new 0 0 24 24" xml:space="preserve">
<g id="bounds" display="none">
	<rect display="inline" fill="none" width="24" height="24"/>
</g>
<g id="Layer_2">
	<path d="M14,16v-1.5c1.378,0,2.5-1.122,2.5-2.5c0-1.379-1.122-2.5-2.5-2.5V8c2.209,0,4,1.791,4,4C18,14.209,16.209,16,14,16z M14,4
		v1.5c3.584,0,6.5,2.916,6.5,6.5s-2.916,6.5-6.5,6.5V20c4.418,0,8-3.582,8-8S18.418,4,14,4z M2,9v6h4l6,6V3L6,9H2z"/>
</g>
</svg>
