<?xml version="1.0" encoding="utf-8"?>
<!-- Generator: Adobe Illustrator 18.1.1, SVG Export Plug-In . SVG Version: 6.00 Build 0)  -->
<svg version="1.1" xmlns="http://www.w3.org/2000/svg" xmlns:xlink="http://www.w3.org/1999/xlink" x="0px" y="0px"
	 viewBox="0 0 24 24" enable-background="new 0 0 24 24" xml:space="preserve">
<g id="bounds" display="none">
	<rect display="inline" fill="none" width="24" height="24"/>
</g>
<g id="Layer_2">
	<path d="M16,12c0,2.209-1.791,4-4,4s-4-1.791-4-4s1.791-4,4-4S16,9.791,16,12z M22,13h-4h-0.09c-0.478,2.833-2.943,5-5.91,5
		c-1.655,0-3.138-0.69-4.223-1.777l-1.427,1.427C7.797,19.098,9.79,20,12,20c3.356,0,6.22-2.07,7.406-5H22V13z M12,6
		c1.655,0,3.138,0.69,4.223,1.777l1.427-1.427C16.203,4.902,14.21,4,12,4C8.644,4,5.78,6.07,4.594,9H2v2h4h0.09
		C6.569,8.167,9.033,6,12,6z"/>
</g>
</svg>
