<?xml version="1.0" encoding="utf-8"?>
<!-- Generator: Adobe Illustrator 18.1.1, SVG Export Plug-In . SVG Version: 6.00 Build 0)  -->
<svg version="1.1" xmlns="http://www.w3.org/2000/svg" xmlns:xlink="http://www.w3.org/1999/xlink" x="0px" y="0px"
	 viewBox="0 0 24 24" enable-background="new 0 0 24 24" xml:space="preserve">
<g id="bounds" display="none">
	<rect display="inline" fill="none" width="24" height="24"/>
</g>
<g id="Layer_2">
	<path d="M17,15c-0.724,0-1.38,0.267-1.898,0.695L9.94,12.598C9.979,12.404,10,12.205,10,12s-0.021-0.404-0.06-0.598l5.162-3.097
		C15.62,8.733,16.276,9,17,9c1.657,0,3-1.343,3-3s-1.343-3-3-3s-3,1.343-3,3c0,0.205,0.021,0.404,0.06,0.598L8.898,9.695
		C8.38,9.267,7.724,9,7,9c-1.657,0-3,1.343-3,3s1.343,3,3,3c0.724,0,1.38-0.267,1.898-0.695l5.162,3.097
		C14.021,17.596,14,17.795,14,18c0,1.657,1.343,3,3,3s3-1.343,3-3S18.657,15,17,15z"/>
</g>
</svg>
