<?xml version="1.0" encoding="utf-8"?>
<!-- Generator: Adobe Illustrator 18.1.1, SVG Export Plug-In . SVG Version: 6.00 Build 0)  -->
<svg version="1.1" xmlns="http://www.w3.org/2000/svg" xmlns:xlink="http://www.w3.org/1999/xlink" x="0px" y="0px"
	 viewBox="0 0 24 24" enable-background="new 0 0 24 24" xml:space="preserve">
<g id="bounds" display="none">
	<rect display="inline" fill="none" width="24" height="24"/>
</g>
<g id="Layer_2">
	<path d="M20,3H4C3.448,3,3,3.448,3,4v16c0,0.552,0.448,1,1,1h8.614v-6.971h-2.346v-2.717h2.346V9.31
		c0-2.325,1.42-3.591,3.494-3.591c0.993,0,1.847,0.074,2.096,0.107v2.43l-1.439,0.001c-1.128,0-1.346,0.536-1.346,1.322v1.734h2.69
		l-0.35,2.717h-2.34V21H20c0.552,0,1-0.448,1-1V4C21,3.448,20.552,3,20,3z"/>
</g>
</svg>
