<?xml version="1.0" encoding="utf-8"?>
<!-- Generator: Adobe Illustrator 18.1.1, SVG Export Plug-In . SVG Version: 6.00 Build 0)  -->
<svg version="1.1" xmlns="http://www.w3.org/2000/svg" xmlns:xlink="http://www.w3.org/1999/xlink" x="0px" y="0px"
	 viewBox="0 0 24 24" enable-background="new 0 0 24 24" xml:space="preserve">
<g id="bounds" display="none">
	<rect display="inline" fill="none" width="24" height="24"/>
</g>
<g id="Layer_2">
	<g>
		<path d="M5.003,6.125c-1.2,0-2-0.88-2-1.919c0-1.08,0.8-1.92,2.04-1.92c1.24,0,2,0.84,2.04,1.92
			C7.083,5.245,6.283,6.125,5.003,6.125z M3.123,7.645h3.839v12.358H3.123V7.645z M9.162,7.645h3.319l0.2,1.72h0.08
			c0.48-0.8,1.72-2,3.8-2c2.56,0,4.439,1.68,4.439,5.319v7.319h-3.839v-6.839c0-1.6-0.56-2.68-1.959-2.68
			c-1.04,0-1.68,0.72-1.96,1.44c-0.12,0.24-0.12,0.6-0.12,0.959v7.119H9.242v-8.399C9.242,10.044,9.202,8.765,9.162,7.645z"/>
	</g>
</g>
</svg>
