<?xml version="1.0" encoding="utf-8"?>
<!-- Generator: Adobe Illustrator 18.1.1, SVG Export Plug-In . SVG Version: 6.00 Build 0)  -->
<svg version="1.1" xmlns="http://www.w3.org/2000/svg" xmlns:xlink="http://www.w3.org/1999/xlink" x="0px" y="0px"
	 viewBox="0 0 24 24" enable-background="new 0 0 24 24" xml:space="preserve">
<g id="bounds" display="none">
	<rect display="inline" fill="none" width="24" height="24"/>
</g>
<g id="Layer_2">
	<g>
		<path d="M10.5,5c3.033,0,5.5,2.467,5.5,5.5c0,1.081-0.315,2.128-0.912,3.03l-0.621,0.937l-0.937,0.621
			C12.628,15.685,11.581,16,10.5,16C7.467,16,5,13.533,5,10.5S7.467,5,10.5,5 M10.5,3C6.358,3,3,6.358,3,10.5S6.358,18,10.5,18
			c1.529,0,2.948-0.46,4.134-1.245L18.879,21L21,18.879l-4.245-4.245C17.54,13.448,18,12.029,18,10.5C18,6.358,14.642,3,10.5,3
			L10.5,3z"/>
	</g>
</g>
</svg>
