<svg id="Layer_2" data-name="Layer 2" xmlns="http://www.w3.org/2000/svg" viewBox="0 0 24 24"><title>mixcloud</title><path d="M20.284,17.893a.665.665,0,0,1-.552-1.035,5.6,5.6,0,0,0,0-6.2.665.665,0,1,1,1.1-.741,6.929,6.929,0,0,1,0,7.686.664.664,0,0,1-.553.295Zm-1.9-1.08a.664.664,0,0,0,.551-.292,4.934,4.934,0,0,0,0-5.532.665.665,0,1,0-1.1.745,3.606,3.606,0,0,1,0,4.04.665.665,0,0,0,.55,1.038ZM17.6,13.755a2.973,2.973,0,0,1-2.971,2.967H5.548A3.54,3.54,0,0,1,5.027,9.68a5.277,5.277,0,0,1,10.245,1.18A2.972,2.972,0,0,1,17.6,13.755Zm-1.33,0a1.638,1.638,0,0,0-1.047-1.524,5.2,5.2,0,0,1-.2.8.665.665,0,1,1-1.262-.419,3.943,3.943,0,0,0-3.75-5.176,3.957,3.957,0,0,0-3.6,2.312,3.517,3.517,0,0,1,1.632.925.665.665,0,1,1-.94.94,2.215,2.215,0,1,0-1.569,3.777h9.085A1.641,1.641,0,0,0,16.275,13.755Z"/></svg>