<svg id="Layer_2" data-name="Layer 2" xmlns="http://www.w3.org/2000/svg" viewBox="0 0 24 24"><title>google-plus</title><path d="M2,12.008a6.351,6.351,0,0,0,4.284,6.007,6.267,6.267,0,0,0,6.85-1.826,7.183,7.183,0,0,0,1.286-5.082c-2.027-.018-4.053-.012-6.077-.009,0,.722,0,1.441,0,2.163,1.213.034,2.427.018,3.64.043a3.51,3.51,0,0,1-2.063,2.406,4.013,4.013,0,1,1-2.7-7.551,4.463,4.463,0,0,1,3.756.734c.564-.528,1.092-1.092,1.611-1.663A6.354,6.354,0,0,0,8.029,5.665,6.312,6.312,0,0,0,2,12.008ZM18.369,9.277c-.006.6-.012,1.211-.015,1.814-.607.006-1.21.009-1.814.012v1.808c.6,0,1.211.006,1.814.012.006.6.006,1.207.012,1.814.6,0,1.2,0,1.808,0,0-.607.006-1.21.012-1.817L22,12.912V11.1c-.6,0-1.21-.006-1.814-.012,0-.6-.009-1.211-.012-1.814Z"/></svg>