<?xml version="1.0" encoding="utf-8"?>
<!-- Generator: Adobe Illustrator 21.1.0, SVG Export Plug-In . SVG Version: 6.00 Build 0)  -->
<svg version="1.1" xmlns="http://www.w3.org/2000/svg" xmlns:xlink="http://www.w3.org/1999/xlink" x="0px" y="0px"
	 viewBox="0 0 24 24" enable-background="new 0 0 24 24" xml:space="preserve">
<g id="bounds" display="none">
	<rect display="inline" fill="none" width="24" height="24"/>
</g>
<g id="Layer_2">
	<path d="M15.272,10.859c-0.262-2.664-2.518-4.752-5.252-4.752c-2.266,0-4.272,1.454-4.993,3.573C3.317,9.933,2,11.404,2,13.18
		c0,1.953,1.592,3.542,3.548,3.542h9.085c1.638,0,2.971-1.331,2.971-2.967C17.605,12.339,16.604,11.152,15.272,10.859z
		 M14.633,15.392H5.548c-1.223,0-2.219-0.992-2.219-2.212c0-1.22,0.995-2.213,2.219-2.213c0.594,0,1.151,0.23,1.569,0.648
		c0.26,0.26,0.68,0.26,0.94,0c0.26-0.26,0.26-0.681,0-0.94C7.6,10.218,7.037,9.905,6.425,9.75c0.631-1.387,2.031-2.312,3.595-2.312
		c2.177,0,3.948,1.768,3.948,3.942c0,0.423-0.067,0.838-0.198,1.234c-0.116,0.349,0.073,0.725,0.422,0.841
		c0.07,0.023,0.14,0.034,0.21,0.034c0.279,0,0.538-0.177,0.631-0.456c0.087-0.261,0.152-0.529,0.196-0.801
		c0.612,0.238,1.047,0.831,1.047,1.524C16.275,14.658,15.539,15.392,14.633,15.392z M22,13.755c0,1.378-0.402,2.707-1.163,3.843
		c-0.129,0.191-0.339,0.295-0.553,0.295c-0.127,0-0.256-0.036-0.369-0.112c-0.305-0.205-0.386-0.618-0.182-0.923
		c0.614-0.916,0.939-1.989,0.939-3.102c0-1.114-0.325-2.186-0.938-3.102c-0.204-0.305-0.123-0.718,0.182-0.923
		c0.305-0.205,0.718-0.123,0.922,0.182C21.598,11.048,22,12.377,22,13.755z M19.781,13.755c0,0.991-0.293,1.947-0.848,2.766
		c-0.129,0.19-0.338,0.292-0.551,0.292c-0.128,0-0.258-0.037-0.372-0.115c-0.304-0.206-0.383-0.62-0.177-0.924
		c0.405-0.598,0.619-1.296,0.619-2.019c0-0.723-0.214-1.422-0.619-2.02c-0.206-0.304-0.126-0.718,0.178-0.923
		c0.304-0.206,0.717-0.126,0.923,0.178C19.488,11.809,19.781,12.766,19.781,13.755z"/>
</g>
</svg>
