<?xml version="1.0" encoding="utf-8"?>
<!-- Generator: Adobe Illustrator 18.1.1, SVG Export Plug-In . SVG Version: 6.00 Build 0)  -->
<svg version="1.1" xmlns="http://www.w3.org/2000/svg" xmlns:xlink="http://www.w3.org/1999/xlink" x="0px" y="0px"
	 viewBox="0 0 24 24" enable-background="new 0 0 24 24" xml:space="preserve">
<g id="bounds" display="none">
	<rect display="inline" fill="none" width="24" height="24"/>
</g>
<g id="Layer_2">
	<path d="M10.978,11.999c0.008,1.188,0.047,2.375-0.016,3.266c-0.056,0.891-0.162,1.484-0.162,1.484
		c-0.03,0.166-0.188,0.276-0.354,0.246c-0.129-0.023-0.224-0.125-0.246-0.246c0,0-0.106-0.594-0.162-1.484
		c-0.064-0.891-0.024-2.078-0.016-3.266c0.002-1.188,0.061-2.375,0.092-3.266C10.165,7.843,10.2,7.249,10.2,7.249
		c0.01-0.166,0.152-0.292,0.318-0.282c0.154,0.009,0.274,0.132,0.282,0.282c0,0,0.035,0.594,0.087,1.484
		C10.918,9.624,10.976,10.811,10.978,11.999z M8.891,9.577C8.845,8.78,8.8,8.249,8.8,8.249C8.788,8.106,8.674,7.987,8.525,7.975
		C8.36,7.96,8.214,8.083,8.2,8.249c0,0-0.045,0.531-0.091,1.328c-0.033,0.797-0.088,1.859-0.09,2.922
		c-0.022,1.062-0.026,2.125,0.031,2.922c0.048,0.797,0.15,1.328,0.15,1.328c0.023,0.119,0.116,0.219,0.243,0.243
		c0.166,0.032,0.326-0.077,0.357-0.243c0,0,0.101-0.531,0.15-1.328c0.057-0.797,0.053-1.859,0.031-2.922
		C8.978,11.436,8.923,10.374,8.891,9.577z M6.891,9.577C6.845,8.78,6.8,8.249,6.8,8.249C6.788,8.106,6.674,7.987,6.525,7.975
		C6.36,7.96,6.214,8.083,6.2,8.249c0,0-0.045,0.531-0.091,1.328c-0.033,0.797-0.088,1.859-0.09,2.922
		c-0.022,1.062-0.026,2.125,0.031,2.922c0.048,0.797,0.15,1.328,0.15,1.328c0.023,0.119,0.116,0.219,0.243,0.243
		c0.166,0.032,0.326-0.077,0.357-0.243c0,0,0.101-0.531,0.15-1.328c0.057-0.797,0.053-1.859,0.031-2.922
		C6.978,11.436,6.923,10.374,6.891,9.577z M4.903,11.265C4.852,10.655,4.8,10.249,4.8,10.249c-0.017-0.133-0.122-0.243-0.261-0.261
		C4.373,9.966,4.221,10.083,4.2,10.249c0,0-0.053,0.406-0.103,1.016c-0.043,0.609-0.083,1.422-0.087,2.234
		c-0.015,0.812,0.008,1.625,0.066,2.234C4.12,16.343,4.2,16.749,4.2,16.749c0.023,0.118,0.116,0.217,0.241,0.241
		c0.166,0.032,0.326-0.076,0.359-0.241c0,0,0.079-0.406,0.125-1.016c0.058-0.609,0.081-1.422,0.066-2.234
		C4.986,12.686,4.946,11.874,4.903,11.265z M2.8,11.249c-0.022-0.121-0.117-0.223-0.246-0.246c-0.166-0.03-0.324,0.08-0.354,0.246
		c0,0-0.056,0.312-0.106,0.781c-0.048,0.469-0.081,1.094-0.087,1.719c-0.005,0.625,0.017,1.25,0.073,1.719
		c0.046,0.469,0.12,0.781,0.12,0.781c0.026,0.11,0.112,0.202,0.229,0.229c0.166,0.039,0.332-0.064,0.371-0.229
		c0,0,0.073-0.312,0.12-0.781c0.056-0.469,0.079-1.094,0.073-1.719c-0.006-0.625-0.039-1.25-0.087-1.719
		C2.856,11.561,2.8,11.249,2.8,11.249z M0.699,12.249c-0.021-0.051-0.062-0.094-0.117-0.117c-0.11-0.046-0.237,0.006-0.283,0.117
		c0,0-0.078,0.188-0.154,0.469c-0.055,0.281-0.134,0.656-0.138,1.031c-0.024,0.375,0.012,0.75,0.096,1.031
		c0.082,0.281,0.196,0.469,0.196,0.469c0.019,0.03,0.045,0.058,0.078,0.078c0.11,0.068,0.255,0.033,0.322-0.078
		c0,0,0.115-0.188,0.196-0.469c0.084-0.281,0.12-0.656,0.096-1.031c-0.004-0.375-0.083-0.75-0.138-1.031
		C0.777,12.436,0.699,12.249,0.699,12.249z M23.857,12.921c-0.272-0.907-0.986-1.657-1.881-1.969
		c-0.819-0.285-1.62-0.231-2.299,0.053c-0.248-2.809-2.604-5.092-5.478-5.092c-0.604,0-1.402,0.224-1.951,0.51
		C12.09,6.507,12,6.679,12,6.856V16.5c0,0.276,0.223,0.5,0.499,0.5c1.867,0.001,8.336-0.001,8.384-0.001
		C22.916,16.999,24.494,15.052,23.857,12.921z"/>
</g>
</svg>
