<svg id="Layer_2" data-name="Layer 2" xmlns="http://www.w3.org/2000/svg" viewBox="0 0 24 24"><title>vk-com</title><path d="M18.226,3H5.774A2.774,2.774,0,0,0,3,5.774V18.226A2.774,2.774,0,0,0,5.774,21H18.226A2.774,2.774,0,0,0,21,18.226V5.774A2.774,2.774,0,0,0,18.226,3Zm-.648,12.6-1.645.023a1.167,1.167,0,0,1-.819-.25c-.615-.422-1.2-1.521-1.648-1.377s-.444,1.133-.444,1.133a.539.539,0,0,1-.1.323.622.622,0,0,1-.336.147h-.736a4.227,4.227,0,0,1-3.055-1.392A20.027,20.027,0,0,1,5.855,9.36s-.079-.211.007-.314.361-.122.361-.122l1.76-.011a.765.765,0,0,1,.285.115.55.55,0,0,1,.153.206,11.821,11.821,0,0,0,.661,1.37c.735,1.271,1.078,1.549,1.327,1.412.364-.2.255-1.8.255-1.8a1.787,1.787,0,0,0-.183-.838.831.831,0,0,0-.547-.275c-.1-.013.064-.243.274-.346A4,4,0,0,1,11.745,8.6a3.17,3.17,0,0,1,.865.086c.607.146.4.712.4,2.07,0,.435-.078,1.046.235,1.249.135.087.465.013,1.289-1.388a10.748,10.748,0,0,0,.684-1.444.517.517,0,0,1,.163-.2.421.421,0,0,1,.239-.042l1.852-.011s.557-.066.647.185-.208.879-.965,1.888c-1.243,1.656-1.381,1.5-.349,2.459a5.5,5.5,0,0,1,1.223,1.415C18.439,15.547,17.578,15.6,17.578,15.6Z"/></svg>