<?xml version="1.0" encoding="utf-8"?>
<!-- Generator: Adobe Illustrator 21.1.0, SVG Export Plug-In . SVG Version: 6.00 Build 0)  -->
<svg version="1.1" xmlns="http://www.w3.org/2000/svg" xmlns:xlink="http://www.w3.org/1999/xlink" x="0px" y="0px"
	 viewBox="0 0 24 24" enable-background="new 0 0 24 24" xml:space="preserve">
<g id="bounds" display="none">
	<rect display="inline" fill="none" width="24" height="24"/>
</g>
<g id="Layer_2">
	<path d="M18.226,3H5.774C4.242,3,3,4.242,3,5.774v12.453C3,19.758,4.242,21,5.774,21h12.453C19.758,21,21,19.758,21,18.226V5.774
		C21,4.242,19.758,3,18.226,3z M17.578,15.601l-1.645,0.023c0,0-0.354,0.07-0.819-0.25c-0.615-0.422-1.196-1.521-1.648-1.377
		c-0.458,0.146-0.444,1.133-0.444,1.133s0.003,0.211-0.101,0.323c-0.114,0.122-0.336,0.147-0.336,0.147h-0.736
		c0,0-1.625,0.098-3.055-1.392C7.233,12.584,5.855,9.36,5.855,9.36S5.776,9.149,5.862,9.046c0.097-0.115,0.361-0.122,0.361-0.122
		l1.76-0.011c0,0,0.166,0.028,0.285,0.115c0.098,0.072,0.153,0.206,0.153,0.206s0.284,0.719,0.661,1.37
		c0.735,1.271,1.078,1.549,1.328,1.412c0.364-0.198,0.255-1.796,0.255-1.796s0.007-0.58-0.183-0.838
		c-0.147-0.2-0.424-0.258-0.547-0.275c-0.099-0.013,0.064-0.243,0.274-0.346c0.317-0.155,0.876-0.164,1.537-0.157
		c0.515,0.005,0.663,0.037,0.865,0.086c0.607,0.146,0.401,0.712,0.401,2.07c0,0.435-0.078,1.046,0.235,1.249
		c0.135,0.087,0.465,0.013,1.289-1.388c0.391-0.664,0.684-1.444,0.684-1.444s0.064-0.139,0.163-0.199
		c0.102-0.061,0.239-0.042,0.239-0.042l1.852-0.011c0,0,0.557-0.066,0.647,0.185c0.094,0.264-0.208,0.879-0.965,1.888
		c-1.243,1.656-1.381,1.501-0.349,2.459c0.985,0.915,1.19,1.36,1.223,1.415C18.439,15.547,17.578,15.601,17.578,15.601z"/>
</g>
</svg>
