<?xml version="1.0" encoding="utf-8"?>
<!-- Generator: Adobe Illustrator 18.1.1, SVG Export Plug-In . SVG Version: 6.00 Build 0)  -->
<svg version="1.1" xmlns="http://www.w3.org/2000/svg" xmlns:xlink="http://www.w3.org/1999/xlink" x="0px" y="0px"
	 viewBox="0 0 24 24" enable-background="new 0 0 24 24" xml:space="preserve">
<g id="bounds" display="none">
	<rect display="inline" fill="none" width="24" height="24"/>
</g>
<g id="Layer_2">
	<g>
		<rect x="7" y="11" width="10" height="2"/>
		<path d="M9,15H4V9h5v1h2V9c0-1.105-0.895-2-2-2H4C2.895,7,2,7.895,2,9v6c0,1.105,0.895,2,2,2h5c1.105,0,2-0.895,2-2v-1H9V15z"/>
		<path d="M20,7h-5c-1.105,0-2,0.895-2,2v1h2V9h5v6h-5v-1h-2v1c0,1.105,0.895,2,2,2h5c1.105,0,2-0.895,2-2V9C22,7.895,21.105,7,20,7
			z"/>
	</g>
</g>
</svg>
