<?xml version="1.0" encoding="utf-8"?>
<!-- Generator: Adobe Illustrator 20.0.0, SVG Export Plug-In . SVG Version: 6.00 Build 0)  -->
<svg version="1.1" xmlns="http://www.w3.org/2000/svg" xmlns:xlink="http://www.w3.org/1999/xlink" x="0px" y="0px"
	 viewBox="0 0 24 24" enable-background="new 0 0 24 24" xml:space="preserve">
<g id="bounds" display="none">
	<rect display="inline" fill="none" width="24" height="24"/>
</g>
<g id="Layer_2">
	<path d="M19,3H5C3.895,3,3,3.895,3,5v14c0,1.104,0.895,2,2,2h14c1.104,0,2-0.895,2-2V5C21,3.895,20.105,3,19,3z M7.836,12.662
		c-0.078,0.031-0.164,0.046-0.253,0.046c-0.35,0-0.634-0.261-0.642-0.591l-0.004-0.016l0.004-0.016v-6.1L6.937,5.97l0.004-0.016
		c0.008-0.331,0.292-0.591,0.642-0.591c0.105,0,0.206,0.023,0.292,0.066l0.078,0.042l5.626,3.043l0.039,0.019
		c0.171,0.109,0.28,0.292,0.28,0.502c0,0.206-0.109,0.389-0.28,0.498l-0.046,0.027l-5.615,3.035L7.836,12.662z M16.107,15.795
		l-0.039,0.019l-4.704,2.545l-0.105,0.055c-0.063,0.027-0.136,0.039-0.21,0.039c-0.296,0-0.533-0.218-0.541-0.494v-0.016V17.93
		v-5.108v-0.016v-0.016c0.008-0.272,0.245-0.494,0.541-0.494c0.089,0,0.171,0.023,0.245,0.059l0.062,0.035l4.716,2.549l0.031,0.015
		c0.144,0.093,0.237,0.245,0.237,0.42C16.341,15.55,16.247,15.701,16.107,15.795z M18.715,11.487l-0.023,0.015l-3.019,1.631
		l-0.062,0.035c-0.043,0.016-0.089,0.027-0.137,0.027c-0.19,0-0.342-0.144-0.346-0.319v-0.008v-0.008v-3.28V9.573V9.561
		c0.004-0.175,0.155-0.319,0.346-0.319c0.055,0,0.109,0.015,0.156,0.038l0.043,0.024l3.023,1.634l0.02,0.012
		c0.093,0.059,0.151,0.156,0.151,0.268C18.866,11.332,18.808,11.429,18.715,11.487z"/>
</g>
</svg>
