<?xml version="1.0" encoding="UTF-8"?>
<!-- Generator: Adobe Illustrator 18.1.1, SVG Export Plug-In . SVG Version: 6.00 Build 0)  -->
<svg version="1.1" xmlns="http://www.w3.org/2000/svg" xmlns:xlink="http://www.w3.org/1999/xlink" x="0px" y="0px"
	 viewBox="0 0 24 24" enable-background="new 0 0 24 24" xml:space="preserve">
<g id="bounds" display="none">
	<rect display="inline" fill="none" width="24" height="24"/>
</g>
<g id="Layer_2">
	<path d="M12.15,22h0c-2.98-.02-5.28-1-6.82-2.92-1.37-1.71-2.08-4.09-2.1-7.07h0c.02-3,.73-5.37,2.1-7.08,1.54-1.92,3.84-2.9,6.82-2.92h.01c2.29.02,4.2.6,5.69,1.75,1.4,1.08,2.38,2.61,2.92,4.56l-1.7.47c-.92-3.3-3.25-4.99-6.92-5.01-2.42.02-4.26.78-5.45,2.26-1.12,1.39-1.69,3.4-1.71,5.97.02,2.57.6,4.58,1.71,5.97,1.19,1.49,3.03,2.25,5.45,2.26,2.19-.02,3.63-.53,4.83-1.7,1.37-1.34,1.35-2.99.91-4-.26-.59-.73-1.08-1.36-1.46-.16,1.13-.52,2.04-1.07,2.73-.74.92-1.78,1.42-3.11,1.49-1,.05-1.97-.18-2.72-.67-.89-.57-1.4-1.45-1.46-2.47-.05-.99.34-1.9,1.11-2.57.73-.63,1.77-1.01,2.99-1.08.9-.05,1.74-.01,2.52.12-.1-.62-.31-1.11-.62-1.46-.43-.49-1.09-.74-1.97-.74h-.02c-.7,0-1.66.19-2.27,1.1l-1.46-.98c.82-1.21,2.14-1.88,3.73-1.88h.04c2.66.02,4.25,1.65,4.41,4.49.09.04.18.08.27.12,1.24.58,2.15,1.47,2.63,2.56.66,1.52.73,3.99-1.29,5.97-1.54,1.51-3.41,2.19-6.06,2.21h0,0ZM12.99,12.26c-.2,0-.41,0-.62.02-1.53.09-2.48.79-2.43,1.79.06,1.05,1.21,1.53,2.32,1.47,1.02-.05,2.35-.45,2.57-3.09-.56-.12-1.18-.18-1.85-.18Z"/>
</g>
</svg>
