<?xml version="1.0" encoding="utf-8"?>
<!-- Generator: Adobe Illustrator 18.1.1, SVG Export Plug-In . SVG Version: 6.00 Build 0)  -->
<svg version="1.1" xmlns="http://www.w3.org/2000/svg" xmlns:xlink="http://www.w3.org/1999/xlink" x="0px" y="0px"
	 viewBox="0 0 24 24" enable-background="new 0 0 24 24" xml:space="preserve">
<g id="bounds" display="none">
	<rect display="inline" fill="none" width="24" height="24"/>
</g>
<g id="Layer_2">
	<path d="M20,11.948c-0.464,0.107-0.912,0.154-1.316,0.154c-2.271,0-4.02-1.586-4.02-4.344c0-1.352,0.523-2.055,1.262-2.055
		c0.703,0,1.172,0.631,1.172,1.911c0,0.728-0.195,1.525-0.339,1.997c0,0,0.7,1.221,2.614,0.846C19.779,9.555,20,8.387,20,7.362
		C20,4.604,18.594,3,16.016,3c-2.649,0-4.2,2.037-4.2,4.723c0,2.661,1.244,4.944,3.295,5.985c-0.862,1.725-1.96,3.245-3.104,4.39
		c-2.076-2.51-3.954-5.859-4.724-12.394H4.22c1.415,10.884,5.633,14.349,6.748,15.015c0.631,0.379,1.174,0.361,1.751,0.036
		c0.906-0.515,3.624-3.233,5.131-6.418c0.633-0.002,1.393-0.074,2.149-0.245V11.948z"/>
</g>
</svg>
