<?xml version="1.0" encoding="utf-8"?>
<!-- Generator: Adobe Illustrator 18.1.1, SVG Export Plug-In . SVG Version: 6.00 Build 0)  -->
<svg version="1.1" xmlns="http://www.w3.org/2000/svg" xmlns:xlink="http://www.w3.org/1999/xlink" x="0px" y="0px"
	 viewBox="0 0 24 24" enable-background="new 0 0 24 24" xml:space="preserve">
<g id="bounds" display="none">
	<rect display="inline" fill="none" width="24" height="24"/>
</g>
<g id="Layer_2">
	<g>
		<path d="M9.663,14.585c0.142,0.18,0.313,0.322,0.511,0.427c0.198,0.105,0.429,0.157,0.691,0.157c0.292,0,0.539-0.06,0.742-0.18
			c0.202-0.12,0.369-0.275,0.5-0.466c0.131-0.191,0.225-0.408,0.281-0.652c0.056-0.243,0.084-0.493,0.084-0.747
			c0-0.262-0.034-0.517-0.101-0.764c-0.068-0.247-0.169-0.466-0.303-0.657c-0.135-0.191-0.303-0.344-0.506-0.461
			c-0.202-0.116-0.435-0.174-0.697-0.174c-0.539,0-0.946,0.187-1.219,0.562c-0.273,0.375-0.41,0.873-0.41,1.495
			c0,0.292,0.036,0.564,0.107,0.815C9.414,14.19,9.521,14.405,9.663,14.585z"/>
		<path d="M21,4H3C2.448,4,2,4.448,2,5v3h6h1.281v2.967h0.022c0.09-0.142,0.198-0.27,0.326-0.382s0.268-0.208,0.421-0.287
			s0.315-0.139,0.483-0.18c0.169-0.041,0.335-0.062,0.5-0.062c0.457,0,0.856,0.081,1.197,0.242c0.341,0.161,0.624,0.382,0.848,0.663
			c0.225,0.281,0.393,0.609,0.506,0.983c0.112,0.375,0.168,0.775,0.168,1.202c0,0.39-0.051,0.768-0.152,1.135
			c-0.101,0.367-0.255,0.691-0.461,0.972c-0.206,0.281-0.466,0.506-0.781,0.674c-0.315,0.169-0.685,0.253-1.112,0.253
			c-0.195,0-0.392-0.013-0.59-0.039c-0.199-0.026-0.388-0.077-0.568-0.152c-0.18-0.075-0.343-0.172-0.489-0.292
			c-0.146-0.12-0.268-0.277-0.365-0.472H9.214v0.798H8V8l-5,8.018H2V19c0,0.552,0.448,1,1,1h18c0.552,0,1-0.448,1-1V5
			C22,4.448,21.552,4,21,4z M15.692,13.9c0.056,0.24,0.146,0.453,0.27,0.641c0.124,0.187,0.283,0.339,0.478,0.455
			c0.195,0.116,0.431,0.174,0.708,0.174c0.375,0,0.684-0.116,0.927-0.348c0.243-0.232,0.395-0.558,0.455-0.978h1.281
			c-0.12,0.757-0.406,1.336-0.86,1.736c-0.453,0.401-1.054,0.601-1.804,0.601c-0.457,0-0.86-0.077-1.208-0.23
			c-0.348-0.153-0.642-0.363-0.882-0.629c-0.24-0.266-0.421-0.582-0.545-0.95c-0.124-0.367-0.185-0.764-0.185-1.191
			c0-0.434,0.06-0.843,0.18-1.225c0.12-0.382,0.299-0.714,0.539-0.995c0.24-0.281,0.537-0.502,0.893-0.663
			c0.356-0.161,0.774-0.242,1.253-0.242c0.337,0,0.657,0.043,0.961,0.129c0.303,0.086,0.573,0.215,0.809,0.388
			c0.236,0.172,0.429,0.39,0.579,0.652c0.15,0.262,0.24,0.573,0.27,0.933H18.53c-0.052-0.36-0.197-0.631-0.433-0.815
			c-0.236-0.183-0.534-0.275-0.893-0.275c-0.165,0-0.341,0.028-0.528,0.084c-0.187,0.056-0.36,0.161-0.517,0.315
			c-0.157,0.154-0.289,0.367-0.393,0.641c-0.105,0.274-0.157,0.631-0.157,1.073C15.608,13.42,15.636,13.66,15.692,13.9z"/>
	</g>
</g>
</svg>
