<?xml version="1.0" encoding="utf-8"?>
<!-- Generator: Adobe Illustrator 21.1.0, SVG Export Plug-In . SVG Version: 6.00 Build 0)  -->
<svg version="1.1" xmlns="http://www.w3.org/2000/svg" xmlns:xlink="http://www.w3.org/1999/xlink" x="0px" y="0px"
	 viewBox="0 0 24 24" enable-background="new 0 0 24 24" xml:space="preserve">
<g id="bounds" display="none">
	<rect display="inline" fill="none" width="24" height="24"/>
</g>
<g id="Layer_2">
	<path d="M20.186,11.092c-0.003-0.604-0.009-1.211-0.012-1.814c-0.604,0-1.204,0-1.805,0c-0.006,0.604-0.012,1.211-0.015,1.814
		c-0.607,0.006-1.21,0.009-1.814,0.012c0,0.604,0,1.204,0,1.808c0.604,0.003,1.211,0.006,1.814,0.012
		c0.006,0.604,0.006,1.207,0.012,1.814c0.601,0,1.205-0.003,1.808,0c0.003-0.607,0.006-1.21,0.012-1.817
		c0.604-0.003,1.21-0.006,1.814-0.009c0-0.604,0-1.204,0-1.808C21.396,11.101,20.79,11.098,20.186,11.092z M8.348,11.098
		c-0.003,0.722,0,1.441,0.003,2.163c1.213,0.034,2.427,0.018,3.64,0.043c-0.306,1.05-1.004,2.026-2.063,2.406
		c-2.045,0.901-4.654-0.276-5.297-2.421c-0.777-2.054,0.495-4.533,2.594-5.13C8.527,7.7,9.868,8.216,10.981,8.892
		c0.564-0.528,1.092-1.092,1.611-1.663c-1.265-1.059-2.891-1.708-4.563-1.565c-3.28,0.039-6.15,3.067-6.025,6.343
		c-0.055,2.651,1.772,5.182,4.284,6.007c2.366,0.795,5.276,0.2,6.85-1.826c1.15-1.42,1.411-3.313,1.286-5.082
		C12.398,11.089,10.372,11.095,8.348,11.098z"/>
</g>
</svg>
