<?xml version="1.0" encoding="utf-8"?>
<!-- Generator: Adobe Illustrator 18.1.1, SVG Export Plug-In . SVG Version: 6.00 Build 0)  -->
<svg version="1.1" xmlns="http://www.w3.org/2000/svg" xmlns:xlink="http://www.w3.org/1999/xlink" x="0px" y="0px"
	 viewBox="0 0 24 24" enable-background="new 0 0 24 24" xml:space="preserve">
<g id="bounds" display="none">
	<rect display="inline" fill="none" width="24" height="24"/>
</g>
<g id="Layer_2">
	<g>
		<g>
			<g>
				<path d="M19.273,18.478c-2.297,1.23-4.792,1.822-7.064,1.822c-3.365,0-6.624-1.163-9.26-3.095
					c-0.231-0.169-0.402,0.129-0.209,0.347C5.183,20.329,8.41,22,11.995,22c2.557,0,5.527-1.015,7.576-2.919
					C19.911,18.767,19.62,18.293,19.273,18.478z M21.271,17.275c-0.228-0.281-2.183-0.522-3.377,0.316
					c-0.184,0.129-0.151,0.306,0.052,0.281c0.672-0.08,2.168-0.26,2.435,0.082c0.267,0.342-0.296,1.748-0.548,2.375
					c-0.076,0.19,0.088,0.267,0.259,0.123C21.21,19.517,21.499,17.557,21.271,17.275z M13.621,7.716
					c-1.524,0.169-3.516,0.283-4.942,0.91c-1.646,0.711-2.803,2.16-2.803,4.292c0,2.73,1.722,4.094,3.935,4.094
					c1.869,0,2.89-0.441,4.332-1.91c0.479,0.69,0.634,1.026,1.509,1.751c0.194,0.106,0.446,0.096,0.62-0.061l0.007,0.006
					c0.523-0.467,1.477-1.295,2.015-1.745c0.214-0.174,0.178-0.459,0.008-0.698c-0.479-0.663-0.991-1.203-0.991-2.434V7.829
					c0-1.734,0.121-3.327-1.157-4.52C15.146,2.341,13.474,2,12.196,2C9.695,2,6.904,2.932,6.318,6.022
					C6.255,6.35,6.496,6.523,6.711,6.57l2.547,0.276c0.239-0.012,0.412-0.246,0.457-0.484c0.219-1.063,1.11-1.577,2.112-1.577
					c0.542,0,1.156,0.2,1.476,0.681c0.368,0.542,0.319,1.281,0.319,1.907V7.716z M13.621,10.388c0,1.024,0.024,1.876-0.492,2.786
					c-0.417,0.741-1.082,1.195-1.818,1.195c-1.009,0-1.599-0.769-1.599-1.905c0-2.238,2.009-2.645,3.909-2.645V10.388z"/>
			</g>
		</g>
	</g>
</g>
</svg>
