<?xml version="1.0" encoding="utf-8"?>
<!-- Generator: Adobe Illustrator 18.1.1, SVG Export Plug-In . SVG Version: 6.00 Build 0)  -->
<svg version="1.1" xmlns="http://www.w3.org/2000/svg" xmlns:xlink="http://www.w3.org/1999/xlink" x="0px" y="0px"
	 viewBox="0 0 24 24" enable-background="new 0 0 24 24" xml:space="preserve">
<g id="bounds" display="none">
	<rect display="inline" fill="none" width="24" height="24"/>
</g>
<g id="Layer_2">
	<path d="M9,3h11c1.105,0,2,0.895,2,2v6c0,1.105-0.895,2-2,2h-1v4l-4-4H9c-1.105,0-2-0.895-2-2V5C7,3.895,7.895,3,9,3z M6,10H4
		c-1.105,0-2,0.895-2,2v4c0,1.105,0.895,2,2,2h0v3l3-3h5c1.105,0,2-0.895,2-2v-2H8.5C7.119,14,6,12.881,6,11.5V10z"/>
</g>
</svg>
