<?xml version="1.0" encoding="utf-8"?>
<!-- Generator: Adobe Illustrator 18.1.1, SVG Export Plug-In . SVG Version: 6.00 Build 0)  -->
<svg version="1.1" xmlns="http://www.w3.org/2000/svg" xmlns:xlink="http://www.w3.org/1999/xlink" x="0px" y="0px"
	 viewBox="0 0 24 24" enable-background="new 0 0 24 24" xml:space="preserve">
<g id="bounds" display="none">
	<rect display="inline" fill="none" width="24" height="24"/>
</g>
<g id="Layer_2">
	<path d="M17,5V3h-2v2H9V3H7v2H4C3.448,5,3,5.448,3,6v14c0,0.552,0.448,1,1,1h16c0.552,0,1-0.448,1-1V6c0-0.552-0.448-1-1-1H17z
		 M5,19V9h14v10H5z M11,11h2v2h-2V11z M15,11h2v2h-2V11z M7,11h2v2H7V11z M11,15h2v2h-2V15z M15,15h2v2h-2V15z M7,15h2v2H7V15z"/>
</g>
</svg>
