<?xml version="1.0" encoding="utf-8"?>
<!-- Generator: Adobe Illustrator 18.1.1, SVG Export Plug-In . SVG Version: 6.00 Build 0)  -->
<svg version="1.1" xmlns="http://www.w3.org/2000/svg" xmlns:xlink="http://www.w3.org/1999/xlink" x="0px" y="0px"
	 viewBox="0 0 24 24" enable-background="new 0 0 24 24" xml:space="preserve">
<g id="bounds" display="none">
	<rect display="inline" fill="none" width="24" height="24"/>
</g>
<g id="Layer_2">
	<path d="M21.99,7.324c-0.089,1.959-1.449,4.641-4.079,8.045c-2.719,3.556-5.02,5.334-6.902,5.334c-1.165,0-2.152-1.082-2.958-3.249
		c-0.538-1.985-1.076-3.97-1.614-5.956C5.839,9.334,5.197,8.25,4.511,8.25c-0.15,0-0.673,0.317-1.57,0.948L2,7.979
		C2.987,7.106,3.961,6.233,4.919,5.36c1.316-1.144,2.305-1.746,2.963-1.807c1.557-0.15,2.515,0.92,2.874,3.212
		c0.388,2.472,0.657,4.01,0.809,4.612c0.449,2.051,0.942,3.076,1.482,3.076c0.419,0,1.047-0.665,1.886-1.996
		c0.838-1.331,1.286-2.343,1.347-3.039c0.119-1.148-0.329-1.724-1.347-1.724c-0.479,0-0.972,0.111-1.48,0.33
		c0.983-3.239,2.861-4.813,5.633-4.723C21.14,3.361,22.109,4.702,21.99,7.324z"/>
</g>
</svg>
