<?xml version="1.0" encoding="utf-8"?>
<!-- Generator: Adobe Illustrator 18.1.1, SVG Export Plug-In . SVG Version: 6.00 Build 0)  -->
<svg version="1.1" xmlns="http://www.w3.org/2000/svg" xmlns:xlink="http://www.w3.org/1999/xlink" x="0px" y="0px"
	 viewBox="0 0 24 24" enable-background="new 0 0 24 24" xml:space="preserve">
<g id="bounds" display="none">
	<rect display="inline" fill="none" width="24" height="24"/>
</g>
<g id="Layer_2">
	<path
		class="cls-2"
		d="M21,7.99c0-.18,0-.36,0-.54-.01-.39-.03-.79-.1-1.18-.07-.4-.19-.76-.37-1.12-.18-.35-.42-.68-.7-.96-.28-.28-.6-.52-.96-.7-.36-.18-.73-.3-1.12-.37-.39-.07-.79-.09-1.18-.1-.18,0-.36,0-.54,0-.22,0-.43,0-.65,0h-6.74c-.22,0-.43,0-.65,0-.18,0-.36,0-.54,0-.39.01-.79.03-1.18.1-.4.07-.76.19-1.12.37-.35.18-.68.42-.96.7-.28.28-.52.6-.7.96-.18.36-.3.73-.37,1.12-.07.39-.09.79-.1,1.18,0,.18,0,.36,0,.54,0,.21,0,.43,0,.64v6.74c0,.22,0,.43,0,.65,0,.18,0,.36,0,.54.01.39.03.79.1,1.18.07.4.19.76.37,1.12.18.35.42.68.7.96.28.28.6.52.96.7.36.18.73.3,1.12.37.39.07.79.09,1.18.1.18,0,.36,0,.54,0,.22,0,.43,0,.65,0h6.74c.22,0,.43,0,.65,0,.18,0,.36,0,.54,0,.39-.01.79-.03,1.18-.1.4-.07.76-.19,1.12-.37.35-.18.68-.42.96-.7.28-.28.52-.6.7-.96.18-.36.3-.73.37-1.12.07-.39.09-.79.1-1.18,0-.18,0-.36,0-.54,0-.22,0-.43,0-.65v-6.74c0-.22,0-.43,0-.65ZM16.18,14.71c0,.23,0,.44-.05.66-.05.22-.13.43-.26.62-.13.19-.3.34-.49.46-.2.12-.4.18-.63.23-.42.08-.7.1-.97.05-.26-.05-.48-.17-.65-.33-.26-.24-.42-.56-.45-.89-.04-.39.09-.81.38-1.12.15-.16.34-.28.58-.38.26-.1.55-.16.99-.25l.35-.07c.15-.03.28-.07.39-.2.11-.13.11-.29.11-.45v-3.96c0-.3-.14-.39-.43-.33-.21.04-4.65.94-4.65.94-.25.06-.34.14-.34.45v5.81c0,.23-.01.44-.06.66-.05.22-.13.43-.26.62-.13.19-.3.34-.49.46-.2.12-.4.19-.63.23-.42.08-.7.1-.97.05-.26-.05-.48-.17-.65-.33-.26-.24-.41-.56-.44-.89-.04-.39.08-.81.37-1.12.15-.16.34-.28.58-.38.26-.1.55-.16.99-.25.12-.02.23-.05.35-.07.15-.03.28-.07.39-.2.11-.13.12-.28.12-.44v-6.7c0-.09,0-.15.01-.18.02-.14.08-.26.18-.35.09-.07.19-.12.33-.15h0s5.35-1.08,5.35-1.08c.05,0,.43-.08.48-.08.29-.03.45.17.45.47v8.49h0Z"/>
</g>
</svg>
