<?xml version="1.0" encoding="utf-8"?>
<!-- Generator: Adobe Illustrator 21.1.0, SVG Export Plug-In . SVG Version: 6.00 Build 0)  -->
<svg version="1.1" xmlns="http://www.w3.org/2000/svg" xmlns:xlink="http://www.w3.org/1999/xlink" x="0px" y="0px"
	 viewBox="0 0 24 24" enable-background="new 0 0 24 24" xml:space="preserve">
<g id="bounds" display="none">
	<rect display="inline" fill="none" width="24" height="24"/>
</g>
<g id="Layer_2">
	<path d="M10.644,16.181l-2.897,3.218C7.387,19.8,7.46,20.427,7.904,20.732c0.924,0.635,1.983,1.068,3.102,1.256
		c0.532,0.089,1.022-0.31,1.041-0.849l0.151-4.329C12.228,15.977,11.201,15.562,10.644,16.181z M10.081,13.285l-3.892-1.898
		c-0.483-0.236-1.066,0.006-1.237,0.515c-0.353,1.049-0.483,2.183-0.351,3.33C4.663,15.769,5.18,16.131,5.704,16l4.201-1.048
		C10.714,14.751,10.83,13.65,10.081,13.285z M14.641,13.684l4.162-1.193c0.519-0.149,0.787-0.721,0.572-1.216
		c-0.459-1.06-1.139-1.976-1.969-2.709c-0.403-0.356-1.028-0.274-1.329,0.172l-2.422,3.59C13.189,13.018,13.84,13.913,14.641,13.684
		z M11.324,2.003C10.578,2.062,9.826,2.189,9.077,2.39c-0.749,0.201-1.464,0.466-2.14,0.788C6.469,3.402,6.292,3.979,6.551,4.429
		l4.068,7.046c0.456,0.791,1.665,0.467,1.665-0.446V2.893C12.284,2.374,11.842,1.962,11.324,2.003z M18.734,16.455l-4.118-1.338
		c-0.792-0.258-1.474,0.615-1.032,1.321l2.295,3.673c0.286,0.458,0.91,0.559,1.326,0.215c0.875-0.722,1.576-1.627,2.059-2.639
		C19.496,17.202,19.246,16.622,18.734,16.455z"/>
</g>
</svg>
