<?xml version="1.0" encoding="utf-8"?>
<!-- Generator: Adobe Illustrator 18.1.1, SVG Export Plug-In . SVG Version: 6.00 Build 0)  -->
<svg version="1.1" xmlns="http://www.w3.org/2000/svg" xmlns:xlink="http://www.w3.org/1999/xlink" x="0px" y="0px"
	 viewBox="0 0 24 24" enable-background="new 0 0 24 24" xml:space="preserve">
<g id="bounds" display="none">
	<rect display="inline" fill="none" width="24" height="24"/>
</g>
<g id="Layer_2">
	<g>
		<path d="M6.09,11C6.569,8.167,9.033,6,12,6c1.023,0,1.987,0.259,2.83,0.712l1.26-1.575C14.891,4.42,13.496,4,12,4
			c-4.072,0-7.436,3.06-7.931,7H1l4,5l4-5H6.09z"/>
		<path d="M23,13l-4-5l-4,5h2.91c-0.478,2.833-2.942,5-5.91,5c-1.114,0-2.167-0.32-3.093-0.884L7.656,18.68
			C8.94,19.521,10.425,20,12,20c4.072,0,7.436-3.06,7.931-7H23z"/>
	</g>
</g>
</svg>
