<?xml version="1.0" encoding="utf-8"?>
<!-- Generator: Adobe Illustrator 18.1.1, SVG Export Plug-In . SVG Version: 6.00 Build 0)  -->
<svg version="1.1" xmlns="http://www.w3.org/2000/svg" xmlns:xlink="http://www.w3.org/1999/xlink" x="0px" y="0px"
	 viewBox="0 0 24 24" enable-background="new 0 0 24 24" xml:space="preserve">
<g id="bounds" display="none">
	<rect display="inline" fill="none" width="24" height="24"/>
</g>
<g id="Layer_2">
	<path d="M8,12c0,1.105-0.895,2-2,2s-2-0.895-2-2s0.895-2,2-2S8,10.895,8,12z M12,10c-1.105,0-2,0.895-2,2s0.895,2,2,2s2-0.895,2-2
		S13.105,10,12,10z M18,10c-1.105,0-2,0.895-2,2s0.895,2,2,2s2-0.895,2-2S19.105,10,18,10z"/>
</g>
</svg>
