<?xml version="1.0" encoding="utf-8"?>
<!-- Generator: Adobe Illustrator 18.1.1, SVG Export Plug-In . SVG Version: 6.00 Build 0)  -->
<svg version="1.1" xmlns="http://www.w3.org/2000/svg" xmlns:xlink="http://www.w3.org/1999/xlink" x="0px" y="0px"
	 viewBox="0 0 24 24" enable-background="new 0 0 24 24" xml:space="preserve">
<g id="bounds" display="none">
	<rect display="inline" fill="none" width="24" height="24"/>
</g>
<g id="Layer_2">
	<path d="M22.493,7.467c-2.313,0.067-5.105-1.747-6.187-2.431c-0.1-0.063-0.203-0.122-0.306-0.175
		c-0.113-0.063-0.231-0.121-0.348-0.18v6.676h-0.003c0.004,0.598-0.173,1.228-0.547,1.832l-0.033,0.053
		c-1.081,1.748-3.356,2.767-5.49,2.046c-2.072-0.7-2.626-2.707-1.528-4.482l0.033-0.054c1.08-1.747,3.355-2.767,5.489-2.046
		c0.164,0.055,0.316,0.121,0.461,0.194V4.075c-0.764-0.207-1.574-0.325-2.428-0.325C6.666,3.75,3,7.446,3,12v0.059
		c0,4.554,3.637,8.191,8.546,8.191c4.938,0,8.605-3.696,8.605-8.25v-0.059c0-0.355-0.025-0.703-0.067-1.046
		C22.655,10.225,23.716,7.563,22.493,7.467z"/>
</g>
</svg>
