<?xml version="1.0" encoding="utf-8"?>
<!-- Generator: Adobe Illustrator 18.1.1, SVG Export Plug-In . SVG Version: 6.00 Build 0)  -->
<svg version="1.1" xmlns="http://www.w3.org/2000/svg" xmlns:xlink="http://www.w3.org/1999/xlink" x="0px" y="0px"
	 viewBox="0 0 24 24" enable-background="new 0 0 24 24" xml:space="preserve">
<g id="bounds" display="none">
	<rect display="inline" fill="none" width="24" height="24"/>
</g>
<g id="Layer_2">
	<path d="M11,17h2v5h-2V17z M11,7h2V2h-2V7z M4.222,18.364l1.414,1.414l3.536-3.537l-1.414-1.414L4.222,18.364z M19.778,5.636
		l-1.414-1.414l-3.537,3.537l1.414,1.414L19.778,5.636z M7,11H2v2h5V11z M17,11v2h5v-2H17z M4.222,5.636l3.537,3.537l1.414-1.414
		L5.636,4.222L4.222,5.636z M14.829,16.243l3.535,3.535l1.414-1.414l-3.535-3.535L14.829,16.243z"/>
</g>
</svg>
