<svg id="Layer_2" data-name="Layer 2" xmlns="http://www.w3.org/2000/svg" viewBox="0 0 24 24"><defs><style>.cls-1{fill-rule:evenodd;}</style></defs><title>yelp</title><path class="cls-1" d="M9.906,14.952,5.7,16a.894.894,0,0,1-1.1-.767,7.682,7.682,0,0,1,.351-3.33.892.892,0,0,1,1.237-.515l3.892,1.9A.892.892,0,0,1,9.906,14.952Zm.738,1.229L7.747,19.4A.893.893,0,0,0,7.9,20.732a7.752,7.752,0,0,0,3.1,1.256.893.893,0,0,0,1.041-.849l.151-4.329A.892.892,0,0,0,10.644,16.181Zm8.089.274-4.118-1.338a.892.892,0,0,0-1.032,1.321l2.3,3.673a.893.893,0,0,0,1.326.215,7.752,7.752,0,0,0,2.059-2.639A.893.893,0,0,0,18.734,16.455Zm-4.093-2.772L18.8,12.49a.894.894,0,0,0,.572-1.216,7.682,7.682,0,0,0-1.969-2.709.892.892,0,0,0-1.329.172l-2.422,3.59A.892.892,0,0,0,14.641,13.684ZM11.324,2A12.524,12.524,0,0,0,6.938,3.178a.892.892,0,0,0-.386,1.251l4.068,7.046a.892.892,0,0,0,1.665-.446V2.893A.892.892,0,0,0,11.324,2Z"/></svg>