<?xml version="1.0" encoding="utf-8"?>
<!-- Generator: Adobe Illustrator 18.1.1, SVG Export Plug-In . SVG Version: 6.00 Build 0)  -->
<svg version="1.1" xmlns="http://www.w3.org/2000/svg" xmlns:xlink="http://www.w3.org/1999/xlink" x="0px" y="0px"
	 viewBox="0 0 24 24" enable-background="new 0 0 24 24" xml:space="preserve">
<g id="bounds" display="none">
	<rect display="inline" fill="none" width="24" height="24"/>
</g>
<g id="Layer_2">
	<g>
		<path fill-rule="evenodd" clip-rule="evenodd" d="M20.389,8.086c-1.08-1.345-2.594-2.124-4.024-2.124
			c-1.891,0-2.691,0.898-4.003,0.898c-1.353,0-2.381-0.897-4.017-0.897c-1.607,0-3.315,0.976-4.399,2.644
			c-1.524,2.346-1.266,6.761,1.206,10.522C6.036,20.473,7.216,21.986,8.76,22c1.372,0.013,1.76-0.875,3.622-0.886
			c1.861-0.01,2.214,0.895,3.585,0.883c1.543-0.015,2.789-1.689,3.672-3.035c0.633-0.963,0.869-1.45,1.361-2.54
			C17.427,15.072,16.852,10.023,20.389,8.086z"/>
		<path fill-rule="evenodd" clip-rule="evenodd" d="M14.93,4.459c0.687-0.882,1.209-2.127,1.02-3.4
			c-1.123,0.078-2.436,0.792-3.202,1.722c-0.696,0.845-1.27,2.098-1.047,3.316C12.926,6.135,14.194,5.403,14.93,4.459z"/>
	</g>
</g>
</svg>
