<?xml version="1.0" encoding="UTF-8"?>
<!-- Generator: Adobe Illustrator 18.1.1, SVG Export Plug-In . SVG Version: 6.00 Build 0)  -->
<svg version="1.1" xmlns="http://www.w3.org/2000/svg" xmlns:xlink="http://www.w3.org/1999/xlink" x="0px" y="0px"
	 viewBox="0 0 24 24" enable-background="new 0 0 24 24" xml:space="preserve">
<g id="bounds" display="none">
	<rect display="inline" fill="none" width="24" height="24"/>
</g>
<g id="Layer_2">
	<path d="M19.87,7.29v3.09c-1.6,0-3.09-.51-4.31-1.38v6.29c0,3.14-2.56,5.7-5.7,5.7-1.21,0-2.34-.38-3.26-1.03-1.47-1.03-2.43-2.74-2.43-4.66,0-3.14,2.56-5.7,5.7-5.7.26,0,.52.02.77.06v3.16c-.24-.08-.5-.12-.77-.12-1.43,0-2.6,1.17-2.6,2.6,0,1,.57,1.87,1.39,2.3.36.19.77.3,1.21.3,1.4,0,2.54-1.11,2.6-2.5V2.99h3.1c0,.27.03.53.07.79.22,1.18.92,2.19,1.89,2.82.68.44,1.48.7,2.34.7Z"/>
</g>
</svg>
