<?xml version="1.0" encoding="utf-8"?>
<!-- Generator: Adobe Illustrator 18.1.1, SVG Export Plug-In . SVG Version: 6.00 Build 0)  -->
<svg version="1.1" xmlns="http://www.w3.org/2000/svg" xmlns:xlink="http://www.w3.org/1999/xlink" x="0px" y="0px"
	 viewBox="0 0 24 24" enable-background="new 0 0 24 24" xml:space="preserve">
<g id="bounds" display="none">
	<rect display="inline" fill="none" width="24" height="24"/>
</g>
<g id="Layer_2">
	<path d="M22,5.797c-0.736,0.326-1.527,0.547-2.357,0.646c0.847-0.508,1.498-1.312,1.804-2.27c-0.793,0.47-1.671,0.812-2.606,0.996
		c-0.748-0.797-1.815-1.296-2.995-1.296c-2.266,0-4.103,1.837-4.103,4.103c0,0.322,0.036,0.635,0.106,0.935
		C8.44,8.74,5.416,7.107,3.392,4.624C3.039,5.23,2.837,5.935,2.837,6.687c0,1.424,0.724,2.679,1.825,3.415
		C3.99,10.081,3.357,9.897,2.804,9.589c0,0.017,0,0.034,0,0.052c0,1.988,1.414,3.647,3.292,4.023
		c-0.344,0.094-0.707,0.144-1.081,0.144c-0.264,0-0.521-0.026-0.772-0.074c0.522,1.63,2.038,2.816,3.833,2.85
		c-1.404,1.1-3.174,1.756-5.096,1.756c-0.331,0-0.658-0.019-0.979-0.057c1.816,1.164,3.973,1.843,6.29,1.843
		c7.547,0,11.675-6.252,11.675-11.675c0-0.178-0.004-0.355-0.012-0.531C20.754,7.343,21.45,6.62,22,5.797z"/>
</g>
</svg>
