<?xml version="1.0" encoding="utf-8"?>
<!-- Generator: Adobe Illustrator 18.1.1, SVG Export Plug-In . SVG Version: 6.00 Build 0)  -->
<svg version="1.1" xmlns="http://www.w3.org/2000/svg" xmlns:xlink="http://www.w3.org/1999/xlink" x="0px" y="0px"
	 viewBox="0 0 24 24" enable-background="new 0 0 24 24" xml:space="preserve">
<g id="bounds" display="none">
	<rect display="inline" fill="none" width="24" height="24"/>
</g>
<g id="Layer_2">
	<g>
		<path d="M17,16h-2.086l-2.957-2.957l-1.414,1.414l2.957,2.957C13.875,17.789,14.384,18,14.914,18H17v3l5-4l-5-4V16z"/>
		<path d="M17,8v3l5-4l-5-4v3h-0.086h-2c-0.53,0-1.039,0.211-1.414,0.586L4.086,16H2v2h0.086h2c0.53,0,1.039-0.211,1.414-0.586
			L14.914,8H17z"/>
		<path d="M7.086,10.914L8.5,9.5l-3-2.914C5.125,6.211,4.616,6,4.086,6H2v2h2.086L7.086,10.914z"/>
	</g>
</g>
</svg>
