<?xml version="1.0" encoding="utf-8"?>
<!-- Generator: Adobe Illustrator 18.1.1, SVG Export Plug-In . SVG Version: 6.00 Build 0)  -->
<svg version="1.1" xmlns="http://www.w3.org/2000/svg" xmlns:xlink="http://www.w3.org/1999/xlink" x="0px" y="0px"
	 viewBox="0 0 24 24" enable-background="new 0 0 24 24" xml:space="preserve">
<g id="bounds" display="none">
	<rect display="inline" fill="none" width="24" height="24"/>
</g>
<g id="Layer_2">
	<path fill-rule="evenodd" clip-rule="evenodd" d="M11.66,13.854l-0.848-0.698c-0.122-0.122-0.248-0.265-0.378-0.428
		c-0.153-0.171-0.229-0.387-0.229-0.649c0-0.269,0.075-0.506,0.223-0.71c0.126-0.196,0.264-0.371,0.413-0.526
		c0.261-0.228,0.506-0.453,0.737-0.673c0.208-0.22,0.406-0.461,0.592-0.722c0.38-0.538,0.577-1.256,0.592-2.154
		c0-0.49-0.055-0.918-0.165-1.285c-0.133-0.367-0.286-0.685-0.459-0.954c-0.181-0.286-0.365-0.526-0.553-0.722
		c-0.196-0.188-0.373-0.33-0.53-0.428h1.541L14.14,3H9.143C8.48,3,7.769,3.078,7.011,3.232c-0.766,0.18-1.504,0.563-2.214,1.15
		C3.763,5.386,3.245,6.504,3.245,7.736c0,1.02,0.365,1.913,1.095,2.68c0.697,0.824,1.711,1.244,3.041,1.26
		c0.251,0,0.519-0.016,0.803-0.049c-0.047,0.131-0.098,0.275-0.153,0.43c-0.063,0.148-0.094,0.332-0.094,0.554
		c0,0.369,0.082,0.685,0.247,0.948c0.141,0.271,0.301,0.525,0.482,0.763c-0.583,0.016-1.316,0.089-2.198,0.22
		c-0.891,0.155-1.741,0.464-2.55,0.928c-0.721,0.431-1.218,0.932-1.493,1.502C2.142,17.542,2,18.059,2,18.524
		c0,0.953,0.436,1.771,1.307,2.455c0.863,0.733,2.17,1.107,3.92,1.124c2.091-0.033,3.691-0.534,4.799-1.505
		c1.069-0.938,1.604-2.015,1.604-3.231c-0.015-0.857-0.21-1.55-0.584-2.081C12.649,14.764,12.187,14.287,11.66,13.854z
		 M8.537,10.993c-0.521,0-0.984-0.159-1.388-0.478c-0.405-0.319-0.735-0.707-0.991-1.165C5.628,8.369,5.364,7.424,5.364,6.517
		C5.348,5.83,5.529,5.209,5.907,4.653c0.449-0.531,1.012-0.805,1.689-0.822c0.512,0.016,0.965,0.168,1.359,0.454
		C9.341,4.587,9.652,4.98,9.888,5.462c0.504,1.006,0.756,2.003,0.756,2.992c0,0.229-0.018,0.511-0.054,0.846
		c-0.06,0.335-0.196,0.662-0.408,0.981C9.743,10.731,9.195,10.968,8.537,10.993z M11.114,20.269c-0.62,0.506-1.52,0.767-2.697,0.783
		c-1.313-0.016-2.347-0.31-3.103-0.881c-0.796-0.571-1.193-1.298-1.193-2.179c0-0.449,0.091-0.832,0.274-1.151
		c0.159-0.302,0.354-0.555,0.585-0.759c0.239-0.196,0.473-0.347,0.704-0.453c0.231-0.098,0.41-0.171,0.537-0.22
		c0.541-0.163,1.07-0.281,1.587-0.355c0.525-0.049,0.851-0.065,0.979-0.049c0.215,0,0.402,0.008,0.561,0.024
		c0.931,0.653,1.615,1.204,2.053,1.653c0.414,0.473,0.621,1.028,0.621,1.665C12.021,19.13,11.719,19.771,11.114,20.269z M22,12.248
		h-2.752V15h-1.495v-2.752H15v-1.495h2.752V8h1.495v2.752H22V12.248z"/>
</g>
</svg>
