<?xml version="1.0" encoding="utf-8"?>
<!-- Generator: Adobe Illustrator 18.1.1, SVG Export Plug-In . SVG Version: 6.00 Build 0)  -->
<svg version="1.1" xmlns="http://www.w3.org/2000/svg" xmlns:xlink="http://www.w3.org/1999/xlink" x="0px" y="0px"
	 viewBox="0 0 24 24" enable-background="new 0 0 24 24" xml:space="preserve">
<g id="bounds" display="none">
	<rect display="inline" fill="none" width="24" height="24"/>
</g>
<g id="Layer_2">
	<path d="M14,9.5V8c2.209,0,4,1.791,4,4c0,0.814-0.246,1.57-0.664,2.202L16.234,13.1c0.165-0.333,0.266-0.703,0.266-1.1
		C16.5,10.621,15.378,9.5,14,9.5z M20.5,12c0,1.503-0.518,2.885-1.378,3.988l1.073,1.073C21.322,15.682,22,13.92,22,12
		c0-4.418-3.582-8-8-8v1.5C17.584,5.5,20.5,8.416,20.5,12z M12,3L9.067,5.933L12,8.866V3z M2,3.061l4.97,4.97L6,9H2v6h4l6,6v-7.939
		l4.785,4.785C15.938,18.252,15.001,18.5,14,18.5V20c1.422,0,2.755-0.376,3.912-1.028L20.939,22L22,20.939L3.061,2L2,3.061z"/>
</g>
</svg>
